<?xml version="1.0" encoding="UTF-8" standalone="no"?>
<!-- Created with Inkscape (http://www.inkscape.org/) -->

<svg
   version="1.1"
   id="svg2"
   width="600"
   height="600"
   viewBox="0 0 600 600"
   sodipodi:docname="fb_favicon.svg"
   inkscape:version="1.2.1 (9c6d41e410, 2022-07-14)"
   xmlns:inkscape="http://www.inkscape.org/namespaces/inkscape"
   xmlns:sodipodi="http://sodipodi.sourceforge.net/DTD/sodipodi-0.dtd"
   xmlns="http://www.w3.org/2000/svg"
   xmlns:svg="http://www.w3.org/2000/svg">
  <defs
     id="defs6" />
  <sodipodi:namedview
     id="namedview4"
     pagecolor="#ffffff"
     bordercolor="#000000"
     borderopacity="0.25"
     inkscape:showpageshadow="2"
     inkscape:pageopacity="0.0"
     inkscape:pagecheckerboard="0"
     inkscape:deskcolor="#d1d1d1"
     showgrid="false"
     inkscape:zoom="0.98641396"
     inkscape:cx="143.4489"
     inkscape:cy="232.15405"
     inkscape:window-width="1920"
     inkscape:window-height="1017"
     inkscape:window-x="-8"
     inkscape:window-y="-8"
     inkscape:window-maximized="1"
     inkscape:current-layer="layer2" />
  <g
     inkscape:groupmode="layer"
     inkscape:label="Image"
     id="g8"
     style="display:inline">
    <path
       style="fill:#000000;fill-opacity:1;stroke-width:5.48233"
       d="m 300.57751,8.3074742 c 0,0 -67.08668,29.2830238 -123.55607,47.3981738 -43.53713,13.966548 -140.229566,27.945776 -140.229566,27.945776 0,0 -6.361143,167.931776 2.038055,254.067736 14.550253,149.21699 108.928101,251.45936 261.218271,258.43929 152.29009,6.97994 228.28309,-141.60559 257.04991,-279.28117 16.38825,-78.43297 1.38943,-240.376409 1.38943,-240.376409 0,0 -101.96618,-11.946805 -151.1864,-25.759909 C 370.44176,40.396797 300.57751,8.3074742 300.57751,8.3074742 Z"
       id="path1864"
       sodipodi:nodetypes="cscszscsc"
       inkscape:label="path1864" />
    <g
       inkscape:groupmode="layer"
       id="layer2"
       inkscape:label="text"
       style="display:inline;fill:#ffffff;fill-opacity:1"
       transform="translate(-97.575667,-1.774103)">
      <g
         id="g2318"
         transform="matrix(5.4823268,0,0,5.4823268,-904.29914,-597.0021)"
         style="fill:#ffffff;fill-opacity:1">
        <path
           style="fill:#ffffff;fill-opacity:1"
           id="path2264"
           d="m 202.24347,127.66839 c 0.36664,0.94468 0.8159,1.84045 1.35198,2.69917 0.69012,1.08197 1.68194,1.87987 2.72729,2.59631 4.11012,2.46625 6.33329,4.258 10.54142,4.93473 1.60309,0.18709 3.22014,0.38752 4.83653,0.32143 1.31097,-0.1178 2.5328,-0.62942 3.78208,-1.00217 1.36914,-0.32391 2.76516,-0.52367 4.16648,-0.64067 1.00627,-0.0307 2.02201,-0.1459 3.02987,-0.10335 0.29154,0.0123 1.19833,0.13591 1.49331,0.1741 0.58848,0.1435 0.80816,0.18059 1.37694,0.38414 2.45764,0.87952 7.07335,3.83994 -4.2839,-2.64492 0.75581,0.39911 1.32565,0.93326 1.74299,1.67397 0.35271,0.82667 0.61574,1.68208 0.7695,2.56685 0,0 6.67096,3.2643 6.67096,3.2643 v 0 c -0.14338,-0.93605 -0.3696,-1.84281 -0.70325,-2.72991 -0.27436,-0.88202 -0.76365,-1.6303 -1.57719,-2.10392 -3.2935,-1.89803 -6.12573,-4.24216 -9.86997,-4.77564 -1.53913,-0.13407 -3.08105,-0.0875 -4.61985,0.044 -1.43354,0.15789 -2.86832,0.37121 -4.26077,0.75381 -1.20025,0.37545 -2.40418,0.80368 -3.67628,0.82945 -1.56479,0.001 -3.13335,-0.11318 -4.67371,-0.39578 -0.79719,-0.18306 -1.56413,-0.39289 -2.33257,-0.67471 -2.40404,-0.88169 -5.78159,-3.21321 4.42516,2.77585 -1.06006,-0.59726 -2.03771,-1.32539 -2.80053,-2.28438 -0.54764,-0.78373 -1.04582,-1.59307 -1.33652,-2.50911 0,0 -6.77997,-3.15355 -6.77997,-3.15355 z" />
        <path
           style="fill:#ffffff;fill-opacity:1"
           id="path2266"
           d="m 211.08381,133.91524 c 0.11411,1.71395 0.16183,3.4331 0.2283,5.14995 0.0458,1.34573 0.0617,2.69231 0.0725,4.03872 0.041,1.69527 0.0537,3.39159 0.0455,5.08736 0.005,1.92868 0.017,3.85735 0.0111,5.78609 -0.0178,1.95509 0.0127,3.91022 0.002,5.86529 0.0269,2.44981 0.0399,4.89974 0.0539,7.34965 0.0105,2.59327 -0.003,5.18701 -0.0298,7.78025 -7.5e-4,2.29756 -0.10264,4.59376 -0.1862,6.88944 -0.10012,1.70647 -0.10988,3.41529 -0.11327,5.12395 0.003,1.71873 0.002,3.43727 -0.001,5.15604 0.007,1.27026 -0.0367,2.53998 -0.0534,3.80994 0.004,0.48246 0.004,0.96487 -9e-5,1.44732 0,0 6.60068,3.36319 6.60068,3.36319 v 0 c -0.004,-0.48254 -0.004,-0.96503 -2.5e-4,-1.44758 -0.0171,-1.28852 -0.061,-2.57677 -0.0554,-3.86557 -0.005,-1.71768 -0.009,-3.43515 0.002,-5.15279 0.009,-1.71632 0.0243,-3.4326 0.0254,-5.14898 0.0452,-2.3056 0.18391,-4.60864 0.18113,-6.91461 -0.0266,-2.60337 -0.0403,-5.20724 -0.0298,-7.81064 0.014,-2.4316 0.0269,-4.86321 0.0539,-7.29471 -0.0109,-1.95439 0.0195,-3.90884 0.002,-5.86326 -0.005,-1.92449 0.007,-3.8489 0.0136,-5.77332 -0.007,-1.68424 0.009,-3.3687 0.036,-5.05269 -0.0109,-1.36571 -0.043,-2.7307 -0.12234,-4.09448 -0.0866,-1.67555 -0.2573,-3.36113 -0.077,-5.03592 0,0 -6.65843,-3.39264 -6.65843,-3.39264 z" />
        <path
           style="fill:#ffffff;fill-opacity:1"
           id="path2272"
           d="m 223.79628,149.48429 c 0.4322,1.07492 0.56884,2.22731 0.67636,3.37125 0.01,0.7169 0.1351,1.44879 0.0356,2.16501 -0.0555,0.39965 -0.16467,0.69279 -0.28414,1.08036 -0.49467,1.33205 -1.45565,2.40228 -2.15745,3.61913 -0.57565,1.20604 -1.23748,2.37688 -1.76447,3.6049 -0.42134,0.96937 -0.48635,2.01997 -0.57502,3.05715 -0.12562,0.94099 -0.18797,1.88785 -0.22604,2.83595 -0.005,0.14359 -0.0105,0.28718 -0.0158,0.43076 0,0 6.60438,3.38486 6.60438,3.38486 v 0 c 0.002,-0.14277 0.003,-0.28554 0.005,-0.42831 0.0252,-0.93683 0.0747,-1.87232 0.18531,-2.80355 0.10637,-0.96445 0.10664,-1.95252 0.45847,-2.87217 0.48458,-1.21345 1.09588,-2.37514 1.67046,-3.54747 0.72982,-1.25785 1.70754,-2.37338 2.26007,-3.73208 0.1305,-0.36596 0.30913,-0.8266 0.39015,-1.21004 0.16029,-0.75864 0.005,-1.53658 -0.0114,-2.30101 -0.0796,-1.17063 -0.20174,-2.34038 -0.49132,-3.48012 0,0 -6.75972,-3.17462 -6.75972,-3.17462 z" />
        <path
           style="fill:#ffffff;fill-opacity:1"
           id="path2282"
           d="m 224.75006,155.72402 c -1.38436,0.92372 -2.93775,1.5404 -4.51425,2.04719 -1.71207,0.56539 -3.47714,0.95797 -5.26577,1.17795 -0.7489,0.0833 -1.50265,0.0743 -2.2546,0.0605 0,0 6.04314,4.38856 6.04314,4.38856 v 0 c 0.75273,-0.0171 1.50476,-0.0717 2.2459,-0.21142 1.75675,-0.35671 3.48219,-0.84749 5.19806,-1.36345 1.65841,-0.556 3.25479,-1.24241 4.82089,-2.02143 0,0 -6.27337,-4.07794 -6.27337,-4.07794 z" />
        <path
           style="fill:#ffffff;fill-opacity:1"
           id="path2300"
           d="m 240.73222,136.73117 c 0.25789,2.22813 0.41192,4.46419 0.49679,6.70525 0.11971,2.07157 0.22483,4.1432 0.27977,6.21755 0.0148,1.36928 0.0308,2.7388 0.0269,4.10817 0.0176,1.49411 0.009,2.98836 0.013,4.48253 -0.011,1.53396 -8.4e-4,3.06774 0.006,4.60168 -0.0167,1.62136 -10e-4,3.24283 0.007,4.86422 -0.006,1.40292 -0.0264,2.80568 -0.0339,4.2086 -0.0168,1.09579 -0.006,2.19139 7.4e-4,3.28715 0.0262,1.43362 0.011,2.86734 0.0132,4.30104 -0.005,1.34621 -7.1e-4,2.69236 -0.0108,4.0386 -0.008,0.51339 -0.0114,1.02681 -0.018,1.54021 0,0 6.62822,3.37725 6.62822,3.37725 v 0 c -0.007,-0.51952 -0.01,-1.03905 -0.018,-1.55854 -0.01,-1.3499 -0.006,-2.69971 -0.0108,-4.04957 0.002,-1.42922 -0.0131,-2.85847 0.0132,-4.28761 0.007,-1.09551 0.0175,-2.19085 7.4e-4,-3.2864 -0.007,-1.41443 -0.0274,-2.82872 -0.0339,-4.24315 0.008,-1.61912 0.0232,-3.23833 0.007,-4.85743 0.007,-1.53162 0.0169,-3.06308 0.007,-4.59472 0.005,-1.48962 -1.4e-4,-2.9793 0.017,-4.46886 -0.008,-1.3854 -0.001,-2.77103 -0.0696,-4.15537 -0.0799,-2.09268 -0.21929,-4.18223 -0.36787,-6.27105 -0.10717,-2.18668 -0.24265,-4.3736 -0.28557,-6.56238 0,0 -6.66733,-3.39717 -6.66733,-3.39717 z" />
        <path
           style="fill:#ffffff;fill-opacity:1"
           id="path2310"
           d="m 233.08221,146.79868 c 10.83877,6.07429 7.20692,4.41641 5.09611,2.83475 -0.54733,-0.41013 -1.08081,-0.83929 -1.61231,-1.26952 -1.15955,-0.91993 -1.99169,-2.03432 -2.73233,-3.29814 -0.73469,-1.39496 -1.0189,-2.95066 -1.22454,-4.49732 -0.0851,-0.97101 -0.20697,-1.95266 -0.19257,-2.92978 0.01,-0.6472 0.0708,-0.85131 0.18079,-1.49596 0.44925,-1.93077 1.32111,-3.28309 2.65178,-4.71774 1.69305,-1.62114 3.84095,-2.32613 6.06364,-2.88681 2.58388,-0.53995 5.23316,-0.73163 7.86784,-0.63666 2.19935,0.17783 4.37175,0.58958 6.4286,1.40359 0.40037,0.15845 0.78748,0.34858 1.18122,0.52286 0.36637,0.19865 1.46096,0.80266 1.09909,0.59593 -10.05919,-5.74649 -5.74241,-3.46623 -4.11998,-2.18326 0.90339,0.71438 1.64094,1.54431 2.35693,2.43812 1.5094,2.09934 1.83231,4.62747 2.0738,7.12992 0.19567,2.31771 0.18967,4.63687 -0.22678,6.92743 -0.33718,1.61698 -1.25865,2.98858 -2.22371,4.29531 -0.86508,1.20165 -1.93558,2.22765 -2.90383,3.34163 -0.66932,0.822 -1.48169,1.55284 -1.97683,2.50037 -0.12727,0.35487 -0.19627,1.02831 0.20584,1.26932 5.89231,3.53162 4.49447,2.90775 7.39907,4.14816 0.7581,0.39417 1.5624,0.69499 2.32332,1.08272 0.23628,0.1204 0.92355,0.52176 0.69366,0.38956 -6.12341,-3.52124 -7.53808,-4.40407 -5.11388,-2.90637 1.16909,0.69121 2.18416,1.56269 3.01145,2.63629 0.91686,1.38316 1.47213,2.96373 1.97994,4.53244 0.62607,1.8802 0.81345,3.85084 0.93784,5.816 0.0687,2.22495 0.15138,4.45564 -0.048,6.67527 -0.16496,2.04611 -0.71442,4.02863 -1.30372,5.98596 -0.50307,1.50588 -1.10491,2.98458 -1.94428,4.33845 -0.19639,0.31677 -0.41776,0.61736 -0.62664,0.92604 -1.05617,1.48612 -2.40213,2.74792 -3.95405,3.70727 -0.30657,0.1895 -0.62973,0.35075 -0.94459,0.52613 -1.35253,0.60565 -2.68508,1.27003 -4.10871,1.69943 -0.86975,0.26234 -1.31891,0.32741 -2.20327,0.49991 -2.05084,0.3427 -4.13316,0.40415 -6.19672,0.16728 -1.12307,-0.12552 -2.2307,-0.42583 -3.25091,-0.91797 -0.23826,-0.11493 -0.92353,-0.51642 -0.69401,-0.3849 1.87195,1.07268 3.74758,2.13893 5.62137,3.2084 -1.56517,-0.87844 -2.85536,-2.09642 -4.03906,-3.42641 -1.21517,-1.37823 -2.0194,-3.00692 -2.63506,-4.72156 -0.5857,-1.75961 -0.70375,-3.61287 -0.7917,-5.45057 -0.0341,-1.64538 -0.10631,-3.29617 0.094,-4.93304 0.38514,-1.5064 1.05032,-2.92528 1.80674,-4.27765 0.78981,-1.41604 1.79319,-2.68749 2.90687,-3.85936 1.10961,-1.14252 2.3743,-2.07828 3.84316,-2.69416 1.28933,-0.46234 2.66877,-0.47314 4.02152,-0.50111 1.94806,-0.0519 3.87038,0.40543 5.74107,0.90322 0.76591,0.23803 1.55878,0.38526 2.30383,0.68891 0.16095,0.0656 0.32098,0.13567 0.47161,0.22237 0.12083,0.0695 0.46071,0.31309 0.33939,0.24442 -2.0202,-1.14345 -4.02535,-2.31328 -6.03803,-3.46991 0.73139,0.61405 0.83395,1.59517 0.92616,2.48914 0.0303,0.34223 0.0358,0.68571 0.0408,1.02897 0,0 6.66835,3.38472 6.66835,3.38472 v 0 c -0.006,-0.36529 -0.0125,-0.73072 -0.0408,-1.09515 -0.0895,-1.02448 -0.20099,-2.08714 -0.68649,-3.00965 -5.65191,-3.39785 -5.25206,-3.84676 -9.76784,-4.90596 -1.94179,-0.45462 -3.91273,-0.89955 -5.92129,-0.78645 -1.43552,0.0561 -2.88437,0.10636 -4.21012,0.72926 -1.49435,0.74189 -2.77938,1.76195 -3.94003,2.96072 -1.16514,1.20783 -2.23192,2.51537 -3.01951,4.00596 -0.81022,1.42647 -1.50754,2.92314 -1.96191,4.5037 -0.0413,0.2543 -0.0981,0.50656 -0.12395,0.76289 -0.0447,0.44345 -0.0219,1.13217 -0.0196,1.56695 0.005,0.91499 0.0129,1.82966 0.033,2.74451 0.0577,1.89743 0.18862,3.8045 0.69657,5.64295 0.1795,0.54113 0.4068,1.2632 0.63033,1.78748 0.4868,1.14178 1.13501,2.21572 1.89916,3.19174 0.19791,0.23577 0.9833,1.17913 1.20584,1.41468 0.79971,0.84649 1.73622,1.57257 2.70784,2.20808 2.28484,1.32021 6.03675,4.12386 9.2907,4.83942 0.68844,0.15139 1.05256,0.17136 1.75729,0.24829 2.10688,0.14181 4.22529,0.061 6.29989,-0.36267 0.85763,-0.19842 1.4112,-0.3069 2.25546,-0.58451 1.44167,-0.47407 2.8295,-1.12291 4.18386,-1.80059 0.3277,-0.19251 0.66379,-0.37141 0.98311,-0.57753 1.60551,-1.03636 2.97187,-2.3859 4.07967,-3.93911 1.16377,-1.68073 2.15739,-3.45635 2.71321,-5.43777 0.62076,-1.99796 1.14805,-4.03551 1.35741,-6.12256 0.23522,-2.25397 0.12058,-4.51929 0.0714,-6.7813 -0.0642,-2.00753 -0.18829,-4.02056 -0.79251,-5.95194 -0.48562,-1.61347 -1.03302,-3.22866 -1.8369,-4.71431 -0.77669,-1.23266 -1.6583,-2.12979 -2.9018,-2.9029 -3.35336,-2.24703 -6.89552,-4.17869 -10.56755,-5.83627 -2.79356,-1.32872 0.12461,0.0375 5.33917,3.19664 0.19371,0.11736 -0.9692,-0.28226 -0.64434,-0.3464 0.30121,-0.85534 1.2587,-1.63573 1.79298,-2.35708 0.98166,-1.12303 2.00591,-2.21202 2.88697,-3.41853 1.03914,-1.39048 2.00405,-2.88193 2.37956,-4.60137 0.38839,-2.3707 0.38834,-4.76612 0.18617,-7.15828 -0.19871,-2.57783 -0.42009,-5.21002 -1.8226,-7.45984 -0.21961,-0.30764 -0.42095,-0.62918 -0.65883,-0.92292 -0.67184,-0.82962 -1.71084,-1.91851 -2.62273,-2.47241 -6.25857,-3.80158 -4.95226,-3.13269 -8.40234,-4.80348 -1.10101,-0.43478 -1.32915,-0.55561 -2.47715,-0.8835 -1.72226,-0.49192 -3.50909,-0.7066 -5.29202,-0.82358 -2.67571,-0.0157 -5.36119,0.17233 -7.96872,0.80851 -2.39607,0.64237 -4.58067,1.40296 -6.39335,3.17777 -1.3381,1.52971 -2.35405,3.05829 -2.87801,5.05012 -0.10921,0.53197 -0.24215,1.08161 -0.275,1.62663 -0.0603,1.00024 0.14316,2.00958 0.17892,3.0061 0.21121,1.61196 0.43119,3.23427 1.09513,4.73542 0.324,0.64075 0.66305,1.29791 1.08397,1.88271 0.44132,0.61315 1.008,1.12931 1.54157,1.65794 0.97946,0.90156 0.0898,0.11733 1.08629,0.90321 2.58643,2.03978 4.38788,3.64439 8.08916,5.0186 0,0 -5.82945,-4.71631 -5.82945,-4.71631 z" />
      </g>
    </g>
  </g>
</svg>
