<?xml version="1.0" encoding="UTF-8" standalone="no"?>
<!-- Created with Inkscape (http://www.inkscape.org/) -->

<svg
   version="1.1"
   id="svg2"
   width="600"
   height="600"
   viewBox="0 0 600 600"
   sodipodi:docname="fb_logo.svg"
   inkscape:version="1.2.1 (9c6d41e410, 2022-07-14)"
   xmlns:inkscape="http://www.inkscape.org/namespaces/inkscape"
   xmlns:sodipodi="http://sodipodi.sourceforge.net/DTD/sodipodi-0.dtd"
   xmlns="http://www.w3.org/2000/svg"
   xmlns:svg="http://www.w3.org/2000/svg">
  <defs
     id="defs6" />
  <sodipodi:namedview
     id="namedview4"
     pagecolor="#ffffff"
     bordercolor="#000000"
     borderopacity="0.25"
     inkscape:showpageshadow="2"
     inkscape:pageopacity="0.0"
     inkscape:pagecheckerboard="0"
     inkscape:deskcolor="#d1d1d1"
     showgrid="false"
     inkscape:zoom="1.395"
     inkscape:cx="174.55197"
     inkscape:cy="213.62007"
     inkscape:window-width="1920"
     inkscape:window-height="1017"
     inkscape:window-x="-8"
     inkscape:window-y="-8"
     inkscape:window-maximized="1"
     inkscape:current-layer="g8" />
  <g
     inkscape:groupmode="layer"
     inkscape:label="Image"
     id="g8">
    <g
       id="g887"
       transform="matrix(1.2896034,0,0,1.2896034,486.24516,195.3743)">
      <path
         style="fill:#d6d6d6;fill-opacity:0"
         d="m -149.59053,324.75964 c -0.47298,-0.76528 0.97466,-1.11876 4.62022,-1.12813 2.91996,-0.008 6.43402,-0.29373 7.80902,-0.63605 1.74913,-0.43545 2.19965,-0.30177 1.5,0.44511 -1.48984,1.5904 -13.08305,2.68825 -13.92924,1.31907 z m 19.34777,-6.0362 c 2.24481,-2.15681 4.08147,-4.35166 4.08147,-4.87743 0,-0.52578 0.63355,-1.48176 1.40789,-2.1244 0.77433,-0.64264 2.14544,-2.72274 3.04691,-4.62245 1.71541,-3.61495 3.99064,-4.28464 8.0452,-2.36801 1.49005,0.70436 0.85261,0.84245 -2.5,0.54156 -2.475,-0.22212 -3.95484,-0.19746 -3.28853,0.0548 0.75755,0.28679 -0.73705,2.96137 -3.98893,7.13815 -6.41056,8.23386 -6.78425,8.62535 -9.05401,9.48534 -1.00732,0.38166 0.005,-1.07074 2.25,-3.22755 z m -33.09421,0.16129 c -3.04988,-3.30267 -9.36835,-12.51478 -9.12387,-13.30228 0.0961,-0.30949 -2.15972,-0.21492 -5.01288,0.21016 -10.53716,1.56989 -22.01767,2.19567 -21.38095,1.16545 0.3421,-0.55354 5.25056,-1.35184 10.90769,-1.77401 16.70304,-1.24649 16.17847,-1.28327 17.27282,1.21111 0.54292,1.2375 1.33042,2.25 1.75,2.25 0.41958,0 0.76287,0.675 0.76287,1.5 0,0.825 0.45,1.5 1,1.5 0.55,0 1,0.54108 1,1.20239 0,0.66132 1.43174,2.67958 3.18165,4.48502 1.7499,1.80545 2.9546,3.50968 2.67709,3.78718 -0.2775,0.2775 -1.64299,-0.72826 -3.03442,-2.23502 z m 58.17568,-11.95249 c 0,-0.94915 18.98198,-2.54568 19.91667,-1.67515 1.06278,0.98984 -1.32877,1.46872 -10.26696,2.05585 -6.27534,0.41221 -9.64971,0.27909 -9.64971,-0.3807 z m -101,-1.28708 c 0,-1.2702 3.03451,-1.2702 5,0 1.13826,0.7356 0.71622,0.97307 -1.75,0.98469 -1.7875,0.008 -3.25,-0.43469 -3.25,-0.98469 z m -8,-1.41344 c -11.17556,-4.23282 -20.48353,-10.00801 -34.1477,-21.18716 -11.00733,-9.00549 -12.32514,-10.25989 -11.57088,-11.01416 0.57509,-0.57508 3.86247,2.12833 10.17167,8.36476 1.25194,1.2375 2.6369,2.25 3.07769,2.25 0.4408,0 1.51419,0.66883 2.38533,1.48629 8.42607,7.90688 20.59538,15.46677 30.02118,18.64991 3.33449,1.12607 6.06271,2.2311 6.06271,2.4556 0,0.74756 -2.46073,0.33529 -6,-1.00524 z m 131.5,0.47084 c 1.1,-0.44398 4.7,-1.83982 8,-3.10186 3.3,-1.26203 8.56281,-4.01832 11.69513,-6.12508 3.13232,-2.10675 6.06158,-3.83046 6.50945,-3.83046 0.44788,0 1.37639,-0.9 2.06335,-2 0.68696,-1.1 1.89784,-2 2.69085,-2 0.79301,0 1.88045,-0.78375 2.41653,-1.74167 0.53608,-0.95792 1.33921,-1.37714 1.78475,-0.93161 2.52988,2.52989 -28.9731,20.85646 -35.42058,20.6056 -1.46404,-0.057 -1.42278,-0.1955 0.26052,-0.87492 z m 36.5,-20.89977 c 0,-0.598 0.97709,-1.61019 2.17131,-2.24931 1.19422,-0.63913 3.25923,-2.45496 4.5889,-4.03519 1.32967,-1.58022 2.88847,-2.87313 3.46401,-2.87313 0.57554,0 2.02939,-1.0125 3.23078,-2.25 1.20139,-1.2375 3.59981,-3.375 5.32982,-4.75 1.73002,-1.375 5.05566,-4.1875 7.39031,-6.25 2.33465,-2.0625 4.61932,-3.75 5.07705,-3.75 0.45773,0 1.37574,-0.45884 2.04003,-1.01965 0.66428,-0.5608 2.55779,-2.16314 4.20779,-3.56075 1.65,-1.3976 4.65697,-3.40733 6.68215,-4.46606 2.02518,-1.05873 3.94663,-2.35289 4.26988,-2.87593 0.60728,-0.98259 1.58472,-1.53188 12.54797,-7.05149 13.17691,-6.63411 23.82318,-10.28751 36.33844,-12.46998 4.80148,-0.83731 9.65312,-2.01644 10.78141,-2.62028 1.12829,-0.60385 2.25399,-0.89535 2.50155,-0.64779 0.81355,0.81355 -6.15726,3.61498 -10.68472,4.29397 -2.44017,0.36596 -6.68668,1.24065 -9.43668,1.94376 -26.89472,6.87627 -46.21873,18.45737 -83.42992,50.00048 -6.04225,5.12189 -7.07008,5.79518 -7.07008,4.63135 z m -223.5,-18.71628 c -11.47037,-9.29365 -28.6852,-20.67528 -39.05798,-25.82329 -11.0825,-5.50023 -19.2023,-8.27893 -31.41947,-10.75211 -10.00616,-2.02559 -16.26169,-4.52168 -16.64309,-6.64095 -0.13133,-0.72971 -0.003,-0.80899 0.30042,-0.18538 0.79899,1.64304 4.62907,2.84661 16.10791,5.0618 5.73031,1.10584 11.15977,2.39551 12.06547,2.86594 0.90571,0.47043 3.89674,1.64028 6.64674,2.59968 14.65454,5.11254 37.9419,18.85589 48.60171,28.68296 1.04406,0.9625 2.23579,1.75777 2.64829,1.76728 0.4125,0.009 1.80973,1.1345 3.10496,2.5 1.29523,1.36549 2.7419,2.48272 3.21482,2.48272 0.47292,0 1.34152,0.9 1.93022,2 0.5887,1.1 0.94203,1.98272 0.78518,1.9616 -0.15685,-0.0211 -3.88518,-2.95523 -8.28518,-6.52025 z M 67.41877,218.0592 c 1.25089,-2.60262 1.75527,-268.54005 0.51781,-273.02174 -0.97974,-3.54835 0.0669,-4.66085 1.54514,-1.6423 0.47135,0.9625 0.99713,60.925 1.16841,133.25 0.31175,131.63826 0.11827,140.68935 -3.04926,142.64699 -0.76825,0.47481 -0.82341,0.10138 -0.1821,-1.23295 z m -428.4972,-4.46326 c -0.74546,-3.47598 -1.08286,-45.24571 -1.08286,-134.05718 0,-126.15644 0.25952,-137.8936 3.04891,-137.8936 0.44631,0 0.39289,1.45953 -0.11872,3.2434 -1.19134,4.15398 -1.20259,264.87812 -0.0116,270.0066 0.47896,2.0625 0.50552,3.75 0.059,3.75 -0.4465,0 -1.29911,-2.27215 -1.89469,-5.04922 z m 28.40117,-133.45078 c -4e-5,-66 0.11957,-93.1473 0.26579,-60.32732 0.14622,32.81997 0.14625,86.81997 6e-5,120 -0.14618,33.18002 -0.26582,6.32732 -0.26585,-59.67268 z m 373.99987,0 c 4e-5,-65.45 0.11973,-92.07773 0.26598,-59.17273 0.14625,32.90501 0.14623,86.45501 -6e-5,119 -0.14629,32.545 -0.26596,5.62273 -0.26592,-59.82727 z m -212.08396,39 c 0.001,-8.25 0.15629,-11.49193 0.34419,-7.20429 0.1879,4.28763 0.18676,11.03763 -0.003,15 -0.1893,3.96236 -0.34304,0.45429 -0.34164,-7.79571 z m 44.04145,-23 c 4.7e-4,-15.95 0.13854,-22.33497 0.30682,-14.18883 0.16828,8.14615 0.16789,21.19615 -8.6e-4,29 -0.16876,7.80386 -0.30644,1.13883 -0.30596,-14.81117 z m 1.91911,-66.5 c 0,-5.225 0.16854,-7.3625 0.37454,-4.75 0.206,2.6125 0.206,6.8875 0,9.5 -0.206,2.6125 -0.37454,0.475 -0.37454,-4.75 z m -115.97196,-4.5 c 0.002,-7.15 0.16103,-9.94379 0.35396,-6.20841 0.19293,3.73537 0.19149,9.58537 -0.003,13 -0.19468,3.41462 -0.35253,0.35841 -0.35078,-6.79159 z m 96.96642,-12 c -0.003,-4.95 0.16605,-7.10108 0.37577,-4.78017 0.20972,2.3209 0.21222,6.3709 0.006,9 -0.20667,2.62909 -0.37827,0.73017 -0.38131,-4.21983 z m 19.01027,-17 c 0.003,-5.5 0.17053,-7.62242 0.37317,-4.71648 0.20265,2.90594 0.20052,7.40594 -0.005,10 -0.20525,2.59406 -0.37104,0.21648 -0.36844,-5.28352 z m -115.97669,-6 c 0.002,-7.15 0.16103,-9.94379 0.35396,-6.20841 0.19293,3.73537 0.19149,9.58537 -0.003,13 -0.19468,3.41462 -0.35253,0.35841 -0.35078,-6.79159 z m -110.38854,-55.35144 c 0.825,-0.51614 5.325,-1.7078 10,-2.64814 22.80202,-4.58645 43.28473,-14.955 69,-34.92851 3.575,-2.77676 6.95,-5.54634 7.5,-6.15462 1.35516,-1.49875 16.40395,-13.8081 24.90486,-20.37124 10.0068,-7.72578 29.44577,-17.52876 31.22692,-15.7476 0.27378,0.27378 -1.87749,1.28672 -4.78061,2.25098 -2.90312,0.96427 -7.09477,2.78925 -9.31478,4.05553 -2.22002,1.26628 -5.5975,3.11068 -7.50553,4.09868 -3.34366,1.73139 -5.20936,3.16365 -9.56603,7.3437 -1.11934,1.07396 -2.37583,1.95266 -2.79221,1.95266 -0.95728,0 -3.07866,1.74004 -6.40056,5.25 -1.43146,1.5125 -3.00732,2.75 -3.50192,2.75 -0.49459,0 -2.03521,1.35 -3.42359,3 -1.38839,1.65 -3.05253,3 -3.69809,3 -0.64557,0 -2.0186,1.125 -3.05118,2.5 -1.03259,1.375 -2.26439,2.5 -2.73735,2.5 -0.47296,0 -1.73134,0.7875 -2.79641,1.75 -1.06506,0.9625 -3.11278,2.65 -4.55049,3.75 -1.43771,1.1 -3.46857,2.675 -4.51303,3.5 -5.29083,4.17914 -7.09791,5.45585 -14.32507,10.12074 -11.17263,7.21156 -25.26155,14.11257 -36.17493,17.71914 -5.27496,1.74322 -8.51826,2.44148 -22,4.73643 -2.1186,0.36064 -2.5593,0.23497 -1.5,-0.42775 z m 394,-2.60355 c -12.95255,-3.55582 -15.15578,-4.37254 -27,-10.00866 -6.24953,-2.97386 -6.90289,-3.35295 -16.5,-9.57362 -9.27933,-6.0147 -21.5,-15.21535 -21.5,-16.18684 0,-0.42674 -0.66463,-0.77589 -1.47695,-0.77589 -0.81232,0 -2.21407,-1.125 -3.11501,-2.5 -0.90093,-1.375 -2.22864,-2.5 -2.95047,-2.5 -0.72183,0 -2.19733,-1.125 -3.27891,-2.5 -1.08158,-1.375 -2.35174,-2.51023 -2.82258,-2.52274 -0.47084,-0.0125 -3.55608,-2.47262 -6.85608,-5.46693 -8.21891,-7.45756 -8.28512,-7.51033 -9.42261,-7.51033 -0.55386,0 -1.48869,-0.9 -2.07739,-2 -0.5887,-1.1 -1.72953,-2 -2.53518,-2 -0.80565,0 -1.46482,-0.39752 -1.46482,-0.88337 0,-0.48585 -0.7875,-1.14779 -1.75,-1.47097 -2.00256,-0.6724 -5.03855,-2.57094 -7.0292,-4.39566 -0.75001,-0.6875 -2.11901,-1.26001 -3.04223,-1.27224 -1.70681,-0.0226 -7.41123,-3.9148 -5.79724,-3.95552 0.48473,-0.0122 4.39342,1.84908 8.68597,4.13625 7.38563,3.93523 15.28849,9.87061 38.4327,28.86461 19.9084,16.33844 34.32255,26.12849 47.97784,32.58641 9.23301,4.36652 23.68535,9.02188 31.27216,10.07333 2.3375,0.32396 4.25,0.97784 4.25,1.45308 0,1.31884 -2.70919,0.95967 -12,-1.59091 z m -123,-75.33987 c -1.375,-0.20597 -2.95,-0.84589 -3.5,-1.42205 -0.69278,-0.72573 0.0529,-0.85012 2.42708,-0.40491 5.11066,0.95836 6.05942,2.57391 1.07292,1.82696 z m -101.5,-1.24025 c -2.2,-0.46729 -7.0375,-0.87556 -10.75,-0.90726 -3.79491,-0.0324 -6.75,-0.49542 -6.75,-1.05763 0,-1.39241 8.93937,-1.2138 18.70122,0.37365 4.51067,0.73351 8.11067,1.03691 8,0.6742 -0.27476,-0.90048 4.62084,-8.0325 5.51956,-8.04102 0.39644,-0.004 -0.53167,2.13067 -2.06246,4.74317 -3.05834,5.2195 -4.95519,5.8511 -12.65832,4.21489 z m 60.79811,-0.71489 c -1.1332,-3.10282 -9.44068,-14.25593 -11.3995,-15.30426 -1.04424,-0.55886 -1.86308,-1.56277 -1.81966,-2.23092 0.0595,-0.91564 0.20316,-0.90698 0.58333,0.0352 0.27741,0.6875 1.04255,1.25 1.70029,1.25 0.65775,0 1.85775,0.95513 2.66667,2.12253 0.80892,1.16739 1.92076,2.63049 2.47076,3.25134 5.44287,6.14398 8.34073,10.52199 7.24895,10.95152 -0.68692,0.27025 0.50851,0.23736 2.65653,-0.0731 2.81205,-0.40642 3.70543,-0.24078 3.19098,0.59162 -1.1465,1.85508 -6.56498,1.41413 -7.29835,-0.59393 z m -85.79811,-0.25 c 0.33992,-0.55 2.05398,-0.99311 3.80902,-0.98469 2.42807,0.0117 2.83235,0.24708 1.69098,0.98469 -1.98326,1.28168 -6.29212,1.28168 -5.5,0 z m 94.5,0 c 0,-0.55 1.4625,-0.99311 3.25,-0.98469 2.46622,0.0116 2.88826,0.24909 1.75,0.98469 -1.96549,1.2702 -5,1.2702 -5,0 z m 21.5,0 c -0.36058,-0.58342 0.65628,-1 2.44098,-1 1.68246,0 3.05902,0.45 3.05902,1 0,0.55 -1.09844,1 -2.44098,1 -1.34254,0 -2.7191,-0.45 -3.05902,-1 z m -13.5,-1 c 1.98269,-1.28131 12,-1.28131 12,0 0,0.56941 -2.90646,0.99341 -6.75,0.98469 -4.72723,-0.0107 -6.30049,-0.30581 -5.25,-0.98469 z m -61.08978,-9.83224 c 1.18476,-2.21374 4.10305,-4.76059 4.05651,-3.5402 -0.0414,1.08555 -3.56207,5.37244 -4.41221,5.37244 -0.34369,0 -0.18362,-0.82451 0.3557,-1.83224 z m 8.53307,-6.82813 c 3.28128,-1.79048 17.92569,-2.37047 19.52337,-0.77322 0.57829,0.57814 -2.1883,0.93359 -7.26641,0.93359 -4.51014,0 -9.77525,0.32528 -11.70025,0.72285 l -3.5,0.72284 z"
         id="path907" />
      <path
         style="fill:#c5c5c5;fill-opacity:0"
         d="m -149.38486,232.91166 c 2.35204,-0.21124 5.95204,-0.20827 8,0.007 2.04796,0.21487 0.12357,0.38771 -4.27643,0.38408 -4.4,-0.004 -6.07561,-0.17944 -3.72357,-0.39069 z m 26.66496,-129.7665 c 4.7e-4,-15.95 0.13854,-22.33497 0.30682,-14.18883 0.16828,8.14615 0.16789,21.19615 -8.6e-4,29 -0.16876,7.80386 -0.30644,1.13883 -0.30596,-14.81117 z m -44.0126,-94 c 7e-4,-12.65 0.14401,-17.68711 0.31847,-11.19358 0.17445,6.49353 0.17388,16.84353 -0.001,23 -0.17516,6.15647 -0.31789,0.84358 -0.31719,-11.80642 z m -2.00128,-1.5 c 0,-12.375 0.14355,-17.4375 0.319,-11.25 0.17544,6.1875 0.17544,16.3125 0,22.5 -0.17545,6.1875 -0.319,1.125 -0.319,-11.25 z"
         id="path905" />
      <path
         style="fill:#b5b5b5;fill-opacity:0"
         d="m -145.83315,16.14516 c 0.004,-3.85 0.18518,-5.30246 0.40166,-3.2277 0.21647,2.07477 0.21284,5.22477 -0.008,7 -0.22091,1.77524 -0.39803,0.0777 -0.39359,-3.7723 z m 84.98173,-29 c 0.006,-3.3 0.1923,-4.52944 0.41486,-2.73209 0.22256,1.79735 0.21797,4.49735 -0.0102,6 -0.22818,1.50265 -0.41027,0.0321 -0.40466,-3.26791 z m -36.30987,-5.5 -7.5,-0.63968 7.19098,-0.18016 c 3.95504,-0.0991 7.4691,0.26984 7.80902,0.81984 0.33992,0.55 0.47898,0.91893 0.30902,0.81984 -0.16996,-0.09909 -3.68402,-0.46801 -7.80902,-0.81984 z"
         id="path903" />
      <path
         style="fill:#a5a5a5;fill-opacity:0"
         d="m -115.71823,102.14516 c -4.5e-4,-16.5 0.13655,-23.39031 0.30444,-15.31181 0.16789,8.07851 0.16826,21.57851 8.2e-4,30 -0.16745,8.4215 -0.30481,1.81181 -0.30526,-14.68819 z m -9.00254,-2.5 c 0,-15.675 0.13824,-22.0875 0.3072,-14.25 0.16896,7.8375 0.16896,20.6625 0,28.5 -0.16896,7.8375 -0.3072,1.425 -0.3072,-14.25 z m -101.06645,-72.5 c 0.002,-6.05 0.16696,-8.39607 0.36601,-5.21349 0.19905,3.18258 0.1972,8.13258 -0.004,11 -0.20131,2.86742 -0.36417,0.26349 -0.36191,-5.78651 z m 83.96214,-6.5 c 0,-4.125 0.17651,-5.8125 0.39226,-3.75 0.21574,2.0625 0.21574,5.4375 0,7.5 -0.21575,2.0625 -0.39226,0.375 -0.39226,-3.75 z m -22.94767,-20.5 c 0.002,-7.15 0.16103,-9.94379 0.35396,-6.20841 0.19293,3.73537 0.19149,9.58537 -0.003,13 -0.19468,3.41462 -0.35253,0.35841 -0.35078,-6.79159 z m 62.00602,-2 c 0.002,-7.7 0.15853,-10.71781 0.34883,-6.70625 0.1903,4.01156 0.18902,10.31156 -0.003,14 -0.19169,3.68844 -0.34739,0.40625 -0.34583,-7.29375 z m -43.06642,5 c 0.004,-3.85 0.18518,-5.30246 0.40166,-3.2277 0.21647,2.07477 0.21284,5.22477 -0.008,7 -0.22091,1.77524 -0.39803,0.0777 -0.39359,-3.7723 z m -79.95407,-6 c 0.002,-6.05 0.16696,-8.39607 0.36601,-5.21349 0.19905,3.18258 0.1972,8.13258 -0.004,11 -0.20131,2.86742 -0.36417,0.26349 -0.36191,-5.78651 z"
         id="path901" />
      <path
         style="fill:#949494;fill-opacity:0"
         d="m -172.7565,118.14516 c 10e-4,-8.8 0.15425,-12.26613 0.33996,-7.70252 0.18572,4.56362 0.18468,11.76362 -0.002,16 -0.18698,4.23639 -0.33893,0.50252 -0.33766,-8.29748 z m 66.01997,-25.5 c 0,-11.825 0.14466,-16.6625 0.32145,-10.75 0.1768,5.9125 0.1768,15.5875 0,21.5 -0.17679,5.9125 -0.32145,1.075 -0.32145,-10.75 z m -115.0302,3.5 c 0.002,-7.7 0.15853,-10.71781 0.34883,-6.70625 0.1903,4.01156 0.18902,10.31156 -0.003,14 -0.19169,3.68844 -0.34739,0.40625 -0.34583,-7.29375 z m 177.9754,-67.5 c 0,-5.775 0.16528,-8.1375 0.36728,-5.25 0.202,2.8875 0.202,7.6125 0,10.5 -0.202,2.8875 -0.36728,0.525 -0.36728,-5.25 z m -198.98142,-3.5 c 0.002,-7.15 0.16103,-9.94379 0.35396,-6.20841 0.19293,3.73537 0.19149,9.58537 -0.003,13 -0.19468,3.41462 -0.35253,0.35841 -0.35078,-6.79159 z m 26.0482,-13.5 c 0,-14.575 0.1398,-20.5375 0.31066,-13.25 0.17086,7.2875 0.17086,19.2125 0,26.5 -0.17086,7.2875 -0.31066,1.325 -0.31066,-13.25 z m 89.92376,17 c 0,-5.225 0.16854,-7.3625 0.37454,-4.75 0.206,2.6125 0.206,6.8875 0,9.5 -0.206,2.6125 -0.37454,0.475 -0.37454,-4.75 z m 74.07305,-16.5 c -6.1e-4,-13.75 0.14023,-19.5137 0.31298,-12.80822 0.17275,6.70549 0.17325,17.95549 10e-4,25 -0.17214,7.04452 -0.31348,1.55822 -0.31409,-12.19178 z m -89.12368,-4 c 0.006,-3.3 0.1923,-4.52944 0.41486,-2.73209 0.22256,1.79735 0.21797,4.49735 -0.0102,6 -0.22818,1.50265 -0.41027,0.0321 -0.40466,-3.26791 z m 48.08185,-7.5 c 0,-7.425 0.15742,-10.4625 0.34983,-6.75 0.19241,3.7125 0.19241,9.7875 0,13.5 -0.19241,3.7125 -0.34983,0.675 -0.34983,-6.75 z m -33.02649,-2.5 c 0.003,-5.5 0.17053,-7.62242 0.37317,-4.71648 0.20265,2.90594 0.20052,7.40594 -0.005,10 -0.20525,2.59406 -0.37104,0.21648 -0.36844,-5.28352 z m -115.97669,-8 c 0.002,-7.15 0.16103,-9.94379 0.35396,-6.20841 0.19293,3.73537 0.19149,9.58537 -0.003,13 -0.19468,3.41462 -0.35253,0.35841 -0.35078,-6.79159 z m 198.93153,1.5 c 0,-3.575 0.1815,-5.0375 0.40333,-3.25 0.22182,1.7875 0.22182,4.7125 0,6.5 -0.22183,1.7875 -0.40333,0.325 -0.40333,-3.25 z"
         id="path899" />
      <path
         style="fill:#848484;fill-opacity:0"
         d="m -67.85142,81.14516 c 0.006,-3.3 0.1923,-4.52944 0.41486,-2.73209 0.22256,1.79735 0.21797,4.49735 -0.0102,6 -0.22818,1.50265 -0.41027,0.0321 -0.40466,-3.26791 z m 28.05063,-51.5 c 0,-5.225 0.16854,-7.3625 0.37454,-4.75 0.206,2.6125 0.206,6.8875 0,9.5 -0.206,2.6125 -0.37454,0.475 -0.37454,-4.75 z m 22.07416,-17 c 0,-14.025 0.14065,-19.7625 0.31255,-12.75 0.1719,7.0125 0.1719,18.4875 0,25.5 -0.1719,7.0125 -0.31255,1.275 -0.31255,-12.75 z m -124.12479,-15.5 c 0.006,-3.3 0.1923,-4.52944 0.41486,-2.73209 0.22256,1.79735 0.21797,4.49735 -0.0102,6 -0.22818,1.50265 -0.41027,0.0321 -0.40466,-3.26791 z m 102.02634,-3.5 c 0,-4.125 0.17651,-5.8125 0.39226,-3.75 0.21574,2.0625 0.21574,5.4375 0,7.5 -0.21575,2.0625 -0.39226,0.375 -0.39226,-3.75 z m -94.60851,-12.72173 c 1.77523,-0.22091 4.92523,-0.22454 7,-0.008 2.07476,0.21648 0.6223,0.39722 -3.2277,0.40166 -3.85,0.004 -5.54754,-0.17268 -3.7723,-0.39359 z"
         id="path897" />
      <path
         style="fill:#747474;fill-opacity:0"
         d="m -149.38486,205.91166 c 2.35204,-0.21124 5.95204,-0.20827 8,0.007 2.04796,0.21487 0.12357,0.38771 -4.27643,0.38408 -4.4,-0.004 -6.07561,-0.17944 -3.72357,-0.39069 z M -337.6772,80.64516 c 0,-66.275 0.11959,-93.3875 0.26576,-60.25 0.14617,33.1375 0.14617,87.3625 0,120.5 -0.14617,33.1375 -0.26576,6.025 -0.26576,-60.25 z m 383.99955,0.5 c 3e-5,-64.35 0.11984,-90.52777 0.26624,-58.17282 0.14639,32.35494 0.14636,85.00494 -7e-5,117 -0.14643,31.99505 -0.26621,5.52282 -0.26617,-58.82718 z m -48.23364,89.78375 c 1.5125,-0.22913 3.9875,-0.22913 5.5,0 1.5125,0.22912 0.275,0.41659 -2.75,0.41659 -3.025,0 -4.2625,-0.18747 -2.75,-0.41659 z M -102.74811,92.14516 c 10e-4,-9.9 0.1507,-13.81474 0.33256,-8.69942 0.18186,5.11532 0.181,13.21532 -0.002,18 -0.18291,4.78468 -0.3317,0.59942 -0.33065,-9.30058 z m -109.97691,11.19453 c -0.27552,-0.71801 -0.3587,-6.90551 -0.18483,-13.75 l 0.31612,-12.44453 0.21622,13.18045 c 0.20989,12.79437 0.28213,13.19314 2.46622,13.61382 l 2.25,0.43337 -2.28138,0.13618 c -1.25477,0.0749 -2.50682,-0.45128 -2.78235,-1.16929 z m 54.86339,-8.69453 c 0,-3.025 0.18747,-4.2625 0.41659,-2.75 0.22913,1.5125 0.22913,3.9875 0,5.5 -0.22912,1.5125 -0.41659,0.275 -0.41659,-2.75 z m 137.02848,-38.5 c 0.004,-3.85 0.18518,-5.30246 0.40166,-3.2277 0.21647,2.07477 0.21284,5.22477 -0.008,7 -0.22091,1.77524 -0.39803,0.0777 -0.39359,-3.7723 z M -136.66129,43.04774 c 4.60282,-0.74809 12.27742,-0.84693 11.84694,-0.15258 -0.25573,0.4125 -3.47592,0.68872 -7.15596,0.61382 -3.68004,-0.0749 -5.79098,-0.28246 -4.69098,-0.46124 z m 82,-0.0342 c 7.16264,-0.74371 15.27741,-0.80844 14.84834,-0.11843 -0.25651,0.4125 -4.37732,0.67798 -9.15736,0.58996 -4.78004,-0.088 -7.34098,-0.30021 -5.69098,-0.47153 z m 27.27643,-0.10193 c 2.35204,-0.21124 5.95204,-0.20827 8,0.007 2.04796,0.21487 0.12357,0.38771 -4.27643,0.38408 -4.4,-0.004 -6.07561,-0.17944 -3.72357,-0.39069 z"
         id="path895" />
      <path
         style="fill:#535353;fill-opacity:0"
         d="m -135.80633,123.14516 c -0.003,-4.95 0.16605,-7.10108 0.37577,-4.78017 0.20972,2.3209 0.21222,6.3709 0.006,9 -0.20667,2.62909 -0.37827,0.73017 -0.38131,-4.21983 z m 0.045,-24 c 10e-4,-8.25 0.15629,-11.49193 0.34419,-7.20429 0.1879,4.28763 0.18676,11.03763 -0.003,15 -0.1893,3.96236 -0.34304,0.45429 -0.34164,-7.79571 z m -73.47645,-6.25 c -0.0421,-4.2625 -0.227,-8.53571 -0.41093,-9.49603 -0.18394,-0.96032 0.0202,-1.96517 0.45354,-2.23302 0.43338,-0.26784 0.86537,4.00537 0.95997,9.49603 0.0946,5.49066 -0.0751,9.98302 -0.37703,9.98302 -0.30197,0 -0.58347,-3.4875 -0.62555,-7.75 z m 73.4259,-24.25 c 0,-4.675 0.17226,-6.5875 0.3828,-4.25 0.21053,2.3375 0.21053,6.1625 0,8.5 -0.21054,2.3375 -0.3828,0.425 -0.3828,-4.25 z M -255.41129,42.90792 c 2.8875,-0.202 7.6125,-0.202 10.5,0 2.8875,0.202 0.525,0.36728 -5.25,0.36728 -5.775,0 -8.1375,-0.16528 -5.25,-0.36728 z"
         id="path893" />
      <path
         style="fill:#434343;fill-opacity:0"
         d="m -183.72455,105.64516 c 0,-14.575 0.1398,-20.5375 0.31066,-13.25 0.17086,7.2875 0.17086,19.2125 0,26.5 -0.17086,7.2875 -0.31066,1.325 -0.31066,-13.25 z m -26.08733,-13 c 0,-4.675 0.17226,-6.5875 0.3828,-4.25 0.21053,2.3375 0.21053,6.1625 0,8.5 -0.21054,2.3375 -0.3828,0.425 -0.3828,-4.25 z m 138.9934,-12.5 c 0.004,-4.4 0.17944,-6.07561 0.39069,-3.72357 0.21124,2.35204 0.20827,5.95204 -0.007,8 -0.21487,2.04796 -0.38771,0.12357 -0.38408,-4.27643 z M -291.29153,69.900439 c -0.36789,-1.96104 -0.70774,-4.303319 -0.20763,-5.424119 0.68,-1.52392 0.9093,-0.62479 0.9093,3.56552 0,3.08183 -0.10818,5.60332 -0.2404,5.60332 -0.13222,0 -0.0934,-1.783691 -0.46127,-3.744721 z M -0.66129,68.14516 c 0,-2.36996 0.3375,-4.10043 0.75,-3.84549 0.95898,0.59268 0.94828,5.48578 -0.0153,7 -0.40409,0.63498 -0.7347,-0.78455 -0.7347,-3.15451 z m -21.16379,-10.5 c 0,-4.125 0.17651,-5.8125 0.39226,-3.75 0.21574,2.0625 0.21574,5.4375 0,7.5 -0.21575,2.0625 -0.39226,0.375 -0.39226,-3.75 z m -115.90051,-45.5 c 5.7e-4,-14.3 0.14102,-20.01094 0.31211,-12.69097 0.17108,7.31996 0.17062,19.01996 -0.001,26 -0.17166,6.98003 -0.31164,0.99097 -0.31107,-13.30903 z m 108.94606,14 c 0.002,-6.6 0.16382,-9.16987 0.35965,-5.71081 0.19583,3.45905 0.19422,8.85905 -0.004,12 -0.19781,3.14094 -0.35803,0.31081 -0.35606,-6.28919 z m -0.008,-29 c 0.002,-6.05 0.16696,-8.39607 0.36601,-5.21349 0.19905,3.18258 0.1972,8.13258 -0.004,11 -0.20131,2.86742 -0.36417,0.26349 -0.36191,-5.78651 z m -121.054,1.5 c 0,-3.575 0.1815,-5.0375 0.40333,-3.25 0.22182,1.7875 0.22182,4.7125 0,6.5 -0.22183,1.7875 -0.40333,0.325 -0.40333,-3.25 z"
         id="path891"
         sodipodi:nodetypes="sssssssscscccsssssssssssssssssscsccccscccssss" />
      <path
         id="path889"
         style="fill:#de9b72;fill-opacity:1"
         d="m -145.80344,-148.59458 c -0.34152,-0.0595 -0.63443,0.0534 -0.92774,0.29687 -2.25229,1.86924 -9.75097,12.79557 -13.85156,20.1836 -2.05783,3.70694 -4.13527,6.98535 -4.61719,7.2832 -0.48192,0.29784 -4.40811,-1.23401 -8.72461,-3.4043 -13.89382,-6.98568 -24.18678,-7.26415 -36.61523,-0.98828 -8.83654,4.46266 -15.64031,9.3597 -32.6582,23.51172 -31.20588,25.949778 -45.54692,35.488283 -65.05665,43.269531 -7.92909,3.162406 -24.01406,7.443409 -32.15625,8.558593 l -4.75,0.650391 V 80.145651 209.5226 l 4.75,0.65039 c 20.66756,2.83103 42.67348,11.58996 62.75,24.97461 7.3338,4.88947 13.50137,9.73411 42.10743,33.06641 28.53432,23.27432 40.36352,26.45241 61.21484,16.44727 4.60234,-2.20836 8.70428,-3.80867 9.11523,-3.55469 0.41095,0.25398 2.90423,4.19157 5.53711,8.75 2.63355,4.55778 6.64155,10.86395 8.90625,14.00976 2.26535,3.14647 4.44363,5.734 4.8418,5.75 1.09308,0.044 10.42629,-13.50906 14.95703,-21.7207 2.20023,-3.98684 4.22876,-7.25 4.50781,-7.25 0.27905,0 4.17709,1.80243 8.66016,4.00586 14.29764,7.0259 23.784022,7.17113 37.179688,0.56836 8.156122,-4.02056 15.295817,-9.27374 35.863281,-26.38281 16.436644,-13.67321 25.780044,-20.71471 35.6523441,-26.87696 C 7.5166575,221.57756 26.409992,214.13817 44.089134,211.00893 l 9.75,-1.72656 V 80.145651 -48.993021 l -9.75,-1.724609 c -27.862852,-4.93145 -51.7335588,-17.252355 -82.005859,-42.328125 -46.926908,-38.871385 -56.969527,-42.819465 -79.746095,-31.341795 -4.4002,2.21769 -8.29888,4.0332 -8.66015,4.0332 -0.36193,0 -2.45798,-3.2625 -4.65821,-7.25 -2.20023,-3.98684 -6.3224,-10.54258 -9.16015,-14.56445 -3.17948,-4.50588 -4.63757,-6.24719 -5.66211,-6.42578 z m -0.11914,11.02148 c 0.91338,0.10014 2.07221,1.59145 4.48632,5.4375 2.16878,3.45483 5.66772,9.43191 7.77735,13.28125 2.10964,3.85 3.96531,7.168 4.12304,7.37305 0.15772,0.20506 5.51843,-2.2706 11.91211,-5.5 10.95904,-5.53621 12.03864,-5.87305 18.794926,-5.87305 12.174292,0 20.778606,5.03441 48.667968,28.48047 35.59669,29.92513 59.9807814,43.574296 87.5,48.978516 3.299802,0.647984 6.789323,1.402864 7.753907,1.677734 1.661368,0.47343 1.740474,7.019304 1.5,124.076172 l -0.253907,123.576168 -9.154296,1.84961 c -27.063868,5.46789 -50.823952,18.54694 -84.345704,46.42774 -31.975308,26.59452 -39.226048,30.93359 -51.691406,30.93359 -6.804848,0 -7.813368,-0.3189 -18.757808,-5.91015 -6.3615,-3.24993 -11.69964,-5.72493 -11.86329,-5.5 -0.16364,0.22427 -3.10612,5.36081 -6.53515,11.41015 -3.42969,6.05 -7.04936,12.06949 -8.04492,13.37695 l -1.81055,2.37891 -2.50781,-3.37891 c -1.37946,-1.85746 -5.09349,-7.98945 -8.25391,-13.62695 -3.16042,-5.63684 -5.9457,-10.25 -6.18945,-10.25 -0.24375,0 -5.25946,2.50133 -11.14453,5.5586 -12.574,6.5311 -18.56645,7.63964 -27.40625,5.07031 -7.43463,-2.1613 -20.31573,-10.85173 -37.29493,-25.15821 -28.28003,-23.82829 -46.56202,-36.04666 -65.66796,-43.89062 -7.86896,-3.23065 -24.56141,-7.97655 -30.83204,-8.76563 l -2.5,-0.31445 -0.2539,-123.730468 -0.25391,-123.730468 2.75391,-0.617188 c 37.03853,-8.314616 54.98242,-17.968362 93.7539,-50.4375 28.57019,-23.925786 36.33342,-28.484376 48.50782,-28.484376 7.2242,0 8.03362,0.24853 18.76367,5.75 6.1671,3.1625 11.38102,5.75 11.58398,5.75 0.20297,0 3.57109,-5.56264 7.48438,-12.35937 3.91262,-6.7974 7.75024,-12.88631 8.52734,-13.53125 0.28842,-0.23937 0.56642,-0.36151 0.8711,-0.32813 z m -0.10352,6.05274 c -1.80148,0.17041 -3.6987,4.30919 -8.35352,12.66601 -3.36897,6.05 -6.29099,11.20265 -6.49023,11.45117 -0.19923,0.24852 -6.22701,-2.45148 -13.39453,-6 -11.87436,-5.87792 -13.58302,-6.4485 -19.21484,-6.4082 -10.61931,0.0759 -19.27729,5.31646 -46.1875,27.953125 -34.03722,28.631176 -56.89699,41.833904 -83.9375,48.482422 l -11.05665,2.71875 V 80.135886 200.92885 l 11.38868,2.86133 c 14.26577,3.58514 29.51849,10.00522 42.80859,18.02149 12.40555,7.48211 20.21378,13.28657 40.77539,30.31054 29.27217,24.23651 35.47018,27.96161 46.52734,27.97461 6.00458,0.007 7.43203,-0.46618 18.7129,-6.2207 6.71612,-3.42651 12.56678,-6.22384 13,-6.21484 0.43255,0.009 2.29685,2.82166 4.14257,6.25 1.84572,3.42769 5.15995,9.32577 7.36524,13.10547 2.96505,5.08236 4.24415,6.51428 4.91015,5.5 0.49523,-0.7547 3.87127,-6.65926 7.5,-13.1211 3.62939,-6.46184 6.88501,-11.76244 7.23438,-11.77734 0.34937,-0.0149 6.16636,2.79757 12.92578,6.25 11.59367,5.92066 12.672,6.27292 19,6.19922 10.957574,-0.12761 18.273844,-4.60177 48.115234,-29.42188 34.193486,-28.43941 54.1121374,-39.77821 82.59375,-47.01758 l 11,-2.79492 V 80.145651 -40.541849 l -11,-2.796875 c -18.399116,-4.67631 -32.67286962,-10.956885 -49.371093,-21.724609 -10.71854,-6.911738 -16.639111,-11.449649 -35.691407,-27.351563 -26.813538,-22.379964 -34.924862,-27.240644 -45.660156,-27.363284 -6.360378,-0.0727 -7.373658,0.2611 -18.769528,6.17383 -6.62488,3.4375 -12.41764,6.25 -12.87305,6.25 -0.45542,0 -4.15817,-5.86194 -8.22656,-13.02539 -4.26748,-7.51281 -5.97196,-11.31104 -7.77344,-11.14062 z m 0.33203,1.79687 c 0.52445,0.0725 3.94931,5.47317 7.60742,12 3.65877,6.52682 7.05128,11.86247 7.53907,11.85547 0.48779,-0.007 6.66697,-2.92727 13.73242,-6.48828 11.4705,-5.7826 13.45144,-6.46708 18.499998,-6.39258 9.98041,0.14722 17.873762,4.91647 43.654296,26.378906 7.699538,6.409864 16.925264,13.923271 20.5,16.695313 22.872248,17.736212 47.308898,29.793854 69.791016,34.4375 l 6.208984,1.283203 V 80.145651 200.24526 l -6.208984,1.2832 c -26.9230646,5.56124 -52.037838,19.3837 -84.791016,46.66993 -30.647044,25.53095 -38.859612,30.68878 -49.091796,30.83984 -4.956528,0.0732 -7.057278,-0.6478 -18.499998,-6.35938 -7.09981,-3.54298 -13.30982,-6.46338 -13.80078,-6.48828 -0.49096,-0.0248 -3.86668,5.2058 -7.50196,11.62305 -3.63462,6.41724 -6.9136,11.97414 -7.28515,12.3457 -0.74153,0.74152 -3.42096,-3.30648 -9.27344,-14.01367 -6.42424,-11.75317 -5.12448,-11.43216 -18.17969,-4.51562 -6.2227,3.29625 -13.33794,6.44827 -15.80859,7.00195 -10.80297,2.42114 -20.76515,-2.91154 -48.5586,-25.99024 -10.72368,-8.90509 -23.775,-19.23713 -29,-22.95898 -18.33963,-13.0639 -38.90721,-22.83268 -57.25,-27.18945 l -9.75,-2.31641 V 80.145651 -39.887552 l 9.6211,-2.291016 c 17.03848,-4.05624 34.01609,-11.638602 50.3789,-22.503906 11.05687,-7.341832 15.3896,-10.673417 38.5,-29.605469 24.42973,-20.012137 31.90576,-24.400387 41.58008,-24.400387 5.47598,0 7.1947,0.60797 18.9336,6.68945 l 12.91015,6.6875 1.78907,-2.7207 c 0.98252,-1.49655 4.26463,-7.01833 7.29296,-12.27149 3.02899,-5.25251 5.9365,-9.49242 6.46094,-9.41992 z m -95.6543,59.369141 c -0.13253,0 -0.13542,0.239431 -0.0781,0.578125 0.14622,-0.06043 0.29303,-0.119757 0.43945,-0.179687 -0.11468,-0.117491 -0.29605,-0.398438 -0.36133,-0.398438 z m 47.88086,11.046875 c -3.72788,-0.0075 -5.37458,0.555598 -8.92968,2.330078 -2.89567,1.445114 -6.14152,3.864262 -7.21289,5.375 -1.63594,2.305488 -1.28968,2.158513 2.15234,-0.912109 10.97758,-9.79364 27.12518,-6.449949 52.13086,10.792969 5.31534,3.665486 10.05373,7.00883 10.52734,7.427734 0.47361,0.41897 -0.0495,3.613483 -1.16211,7.099609 -3.07178,9.627396 -3.0635,9.527231 -3.73632,37.820313 -0.34666,14.56315 -0.84382,26.82664 -1.10547,27.25 -1.05118,1.700708 -2.05121,0.617593 -1.60157,-1.734375 0.29434,-1.539658 -0.57464,-4.585521 -2.25586,-7.908203 -2.7161,-5.36925 -2.69934,-7.587891 0.0586,-7.587891 0.79254,0 1.4414,-0.396246 1.4414,-0.878906 0,-1.577928 -2.71128,-3.170249 -4.33593,-2.546875 -2.89704,1.111624 -2.99592,4.340409 -0.25391,8.296875 3.14321,4.53533 3.17282,4.903234 0.41797,5.308594 -2.99813,0.441094 -3.45616,2.592603 -0.63672,2.992187 1.65514,0.23461 2.39489,1.085718 2.61719,3.009766 0.43286,3.746556 -2.6679,5.349928 -7.35547,3.802734 -6.34927,-2.095528 -6.45313,-2.602588 -6.45313,-31.2402341 V -16.418802 l 2.25,-0.904297 c 1.5894,-0.638794 -0.3924,-0.904297 -6.75,-0.904297 -6.47752,0 -8.35845,0.257218 -6.70703,0.919922 l 2.29493,0.921875 -0.13868,26.121094 c -0.0763,14.365836 0.24062,26.492236 0.70508,26.947266 0.46446,0.454964 3.47892,2.207733 6.69727,3.894531 8.12066,4.256616 13.78248,4.206325 20.10351,-0.181641 l 4.68164,-3.25 0.23047,-29.4999998 c 0.19346,-24.9333402 0.49723,-30.3126842 1.96875,-34.7500002 0.95751,-2.887302 1.85625,-5.25 1.99805,-5.25 0.14181,0 4.0635,1.565671 8.71289,3.480469 4.64873,1.914808 9.12878,3.479562 9.95312,3.476562 0.825,-0.003 -1.02309,-1.043786 -4.10742,-2.3125 -7.36736,-3.030656 -12.89258,-6.495489 -12.89258,-8.085937 0,-0.702644 1.85664,-3.478171 4.12696,-6.167969 l 4.1289,-4.890625 -5.31836,5.375 c -3.61401,3.653182 -5.71214,5.09471 -6.54882,4.5 -24.32159,-17.287502 -32.80022,-21.450067 -45.125,-22.154297 -1.85394,-0.105922 -3.32747,-0.17133 -4.57032,-0.173828 z m -53.10156,1.203125 c -0.1155,0.07284 -0.23297,0.143667 -0.34765,0.216797 0.19656,0.178894 0.35712,0.263964 0.43945,0.181641 0.0378,-0.03784 -0.0878,-0.30077 -0.0918,-0.398438 z m -5.0332,3.150391 c -0.0552,0.03354 -0.2405,0.14765 -0.3125,0.191406 0.0841,0.119284 0.19062,0.03347 0.3125,-0.191406 z m 233.199217,0.732422 c -0.08547,-0.04131 -0.272826,0.01629 -0.414063,0.02539 0.161296,0.09217 0.321445,0.18656 0.482422,0.279297 -0.0047,-0.114239 0.03442,-0.255017 -0.06836,-0.304687 z m 6.140625,3.867187 c -0.0056,0.0067 -0.05198,0.06049 -0.05859,0.06836 0.01433,0.0091 0.02864,0.01822 0.04297,0.02734 -0.0139,0.01143 0.0333,-0.116902 0.01563,-0.0957 z m 8.830078,6.033203 c -0.062436,-0.0093 -0.3459801,0.295594 -0.4941406,0.40625 0.082483,0.07425 0.1619638,0.151957 0.2441406,0.226563 0.04049,-0.155897 0.3174568,-0.622764 0.25,-0.632813 z m -44.269531,5.519532 c -0.0059,0.0141 -0.01347,0.07449 -0.01953,0.0918 h 0.06445 c -0.0166,0.01385 -0.02743,-0.133091 -0.04492,-0.0918 z m -26.892578,0.419921 c -0.01072,-0.01884 -0.0093,0.260056 -0.01953,0.257813 0.02345,-0.0018 0.04686,-0.0041 0.07031,-0.0059 -0.01637,-0.0627 -0.03529,-0.224705 -0.05078,-0.251954 z m -116.750001,0.277344 c 0.16115,0.139111 0.3238,0.11004 0.49609,0.08203 -0.16515,-0.02874 -0.3308,-0.05417 -0.49609,-0.08203 z m -91.01562,3.142578 c -0.0197,0.0088 -0.0389,0.01854 -0.0586,0.02734 0.0125,-0.0022 0.0897,0.08021 0.0977,0.07227 0.0101,-0.01014 -0.0455,-0.0856 -0.0391,-0.09961 z m 24.21679,0.78711 c -5.14715,-0.03149 -8.98809,0.527235 -12.74414,1.667968 -7.84523,2.382978 -12.98321,5.944319 -16.64648,11.539063 -7.03424,10.741204 -3.00393,25.2558974 8.62109,31.048828 6.37347,3.176162 12.54534,3.326261 18.48828,0.449219 2.40235,-1.162894 4.65298,-1.8294125 5.00196,-1.4804689 0.49929,0.499267 0.61656,13.0205609 0.28515,30.3769529 -0.0135,0.70523 -1.03594,1.690146 -2.27344,2.1875 -1.57569,0.63361 0.59497,0.904297 7.25,0.904297 6.65569,0 8.82635,-0.270687 7.25,-0.904297 -2.20154,-0.885094 -2.25,-1.24711 -2.25,-16.9375 0,-15.1847336 0.10086,-16.0312497 1.9336,-16.0312498 1.0642,1e-7 3.0892,0.438259 4.5,0.9746094 2.02155,0.7685244 2.5664,1.6579864 2.5664,4.1992184 0,1.991588 0.35315,2.862075 0.92383,2.275391 1.08679,-1.117334 5.17663,-11.6808202 4.70508,-12.1523438 -0.1775,-0.1774868 -1.95158,0.357286 -3.94336,1.1894532 -1.99178,0.8321606 -5.21164,1.513672 -7.1543,1.5136718 h -3.53125 V -10.854349 c 0,-9.62434 0.24652,-17.5 0.54883,-17.5 0.30231,0 1.7719,0.63065 3.26367,1.402344 1.49244,0.771704 4.73343,1.690706 7.20118,2.041016 5.60249,0.795334 11.02876,-1.684997 12.41211,-5.673829 1.26321,-3.644246 0.53896,-4.098217 -3.4043,-2.130859 -2.92523,1.459234 -4.34685,1.505903 -12.41211,0.412109 -8.98669,-1.218683 -15.44399,-1.839594 -20.5918,-1.871093 z m -1.51758,2.361328 c 8.23694,0.03105 12.80741,1.490866 11.91797,3.808594 -0.58836,1.533098 -6.71595,4.65039 -9.14257,4.65039 -1.53893,0 -1.52761,0.08934 -0.008,1.25 1.36435,1.033924 1.69812,3.626747 1.93946,15.0000002 0.27057,12.7504818 -0.22223,16.6248729 -1.4961,11.7539063 -0.60522,-2.3142182 -3.00939,-3.48783 -5.32422,-2.5996094 -1.23541,0.4740436 -1.348,0.9375848 -0.48242,1.9804688 1.39299,1.6783378 0.46794,4.3448639 -1.95703,5.6425781 -5.80779,3.108392 -15.41771,-1.2357837 -18.9707,-8.5761719 -3.29536,-6.8068612 -2.56368,-16.7526401 1.66015,-22.5839841 1.70894,-2.358988 5.47649,-5.607311 8.47071,-7.302735 4.78969,-2.712362 6.28682,-3.050237 13.39257,-3.023437 z m 75.8125,5.279297 -0.45898,0.679687 0.53711,-0.585937 c -0.0268,-0.03002 -0.052,-0.06242 -0.0781,-0.09375 z m -13.25781,7.265625 c -2.13384,0.161425 -4.34681,1.108273 -6.50976,3.007812 -5.52856,4.85352 -7.94148,15.33999388 -5.5293,24.0234377 1.33531,4.8068903 4.96233,10.0596573 8.01367,11.6035153 1.35849,0.6874 3.76068,1.255672 5.33789,1.263672 3.81436,0.01961 10.04573,-6.206533 11.51758,-11.5078123 4.17897,-15.051744 -3.58409,-29.0901327 -12.83008,-28.3906247 z m 127.86133,0.105468 c -3.638955,-0.0485 -7.559478,0.196126 -9.285156,0.765625 -5.41286,1.786454 -8.631953,6.214867 -8.626953,11.8691411 0.0046,5.7738105 2.253444,9.6534982 8.580078,14.796875 13.777506,11.2007839 16.416015,14.7193489 16.416015,21.8945309 0,4.99112 -2.305761,8.924989 -6.357421,10.847657 -11.241094,5.334194 -23.62157,-3.615434 -20.523438,-14.835938 0.526974,-1.908648 1.941644,-4.158846 3.142578,-5 2.829762,-1.982098 8.164038,-1.961232 10.166016,0.04102 1.734778,1.734778 2.152899,6.429687 0.572265,6.429687 -0.549934,0 -1,0.450066 -1,1 0,1.406574 5.349635,1.248022 6.798829,-0.201172 0.659934,-0.659934 1.201171,-2.650833 1.201171,-4.425781 0,-4.52673 -3.818971,-7.374075 -9.884765,-7.369141 -15.12053,0.01225 -19.470016,18.844137 -5.78711,25.056641 4.635726,2.104758 12.050023,2.501678 16.355469,0.875 3.448432,-1.302914 8.010269,-5.511217 9.904297,-9.136719 0.775824,-1.485058 1.412109,-5.13078 1.412109,-8.101562 0,-6.938608 -2.024872,-9.973991 -12.904296,-19.3476564 -9.514996,-8.1980688 -12.080844,-11.5665169 -12.089844,-15.8769531 -0.01353,-6.2173435 5.123191,-9.5753965 11.453125,-7.4863285 3.050962,1.006904 4.678462,3.154449 7.208984,9.5136722 0.5634,1.4157176 0.889838,0.2871616 1.117188,-3.8632812 0.176564,-3.224662 0.05394,-6.129658 -0.271485,-6.455078 -0.600509,-0.600575 -3.958701,-0.941732 -7.597656,-0.990235 z m -127.70117,0.896485 c 1.59449,-0.15825 3.24259,0.677729 4.47265,2.554687 2.73451,4.170386 3.16844,26.389492 0.61329,31.357422 -3.33444,6.481434 -8.53203,4.792941 -10.35743,-3.363281 -1.50714,-6.7371078 -0.83372,-23.111713 1.11719,-27.136719 1.01793,-2.100128 2.55981,-3.253859 4.1543,-3.412109 z m 98.785154,0.0059 c -3.733214,-0.03655 -5.952044,0.28568 -5.210934,0.75586 1.00092,0.634954 1.22523,5.39891 1,21.2343746 -0.1597,11.2280934 -0.67833,21.2130064 -1.1543,22.1875004 -0.47597,0.974484 2.32471,-0.600648 6.224609,-3.5 6.280014,-4.669196 6.864693,-5.374189 5.115235,-6.173829 -1.848998,-0.845074 -1.97461,-1.944178 -1.97461,-17.16796825 0,-12.07461775 0.321976,-16.39315375 1.25,-16.76757775 0.6875,-0.27741 -1.675198,-0.53336 -5.25,-0.56836 z m -32.701174,0.02148 c -6.48915,0.0638 -10.98592,0.326444 -9.99218,0.583984 0.99307,0.25754 2.23123,1.584825 2.75,2.949219 1.22844,3.232592 1.22844,50.46858 0,53.701172 -0.51877,1.364328 -1.75693,2.691744 -2.75,2.949218 -0.99374,0.25754 2.24401,0.492585 7.19335,0.521485 6.31368,0.03691 8.32842,-0.217113 6.75,-0.851563 -2.18284,-0.877584 -2.25,-1.321048 -2.25,-14.9375 0,-7.717192 0.34973,-14.03125 0.77735,-14.03125 0.42763,0 1.78699,0.707662 3.02148,1.572266 2.45668,1.720598 5.61498,7.6262 12.26563,22.927734 4.85941,11.181884 11.98189,19.599758 18.058591,21.347656 8.004762,2.302418 18.52919,0.686568 21.888672,-3.361328 0.641784,-0.773314 -0.473543,-0.526017 -2.666015,0.591797 -4.728946,2.410958 -8.686697,2.40496 -14.035157,-0.02344 -5.12799,-2.328168 -8.698195,-7.091529 -15.992191,-21.333985 -3.18338,-6.216938 -7.61984,-13.079005 -10.48242,-16.210937 l -4.96289,-5.429688 3.39453,-1.419922 c 8.88253,-3.7113528 12.44397,-16.67216 6.61719,-24.080078 -3.73865,-4.75259 -6.74532,-5.591083 -19.58594,-5.464843 z m 105.642581,0 c -4.642356,0.0638 -7.62844,0.326444 -6.634766,0.583984 0.993664,0.25754 2.231296,1.584825 2.75,2.949219 1.183484,3.112682 1.246796,22.0441741 0.07617,22.7675779 -0.4765,0.2944702 -1.670613,-0.3524892 -2.654297,-1.4394532 -0.983684,-1.0869574 -2.507572,-1.9708906 -3.384766,-1.9628906 -0.993384,0.00918 -0.650738,0.4899003 0.90625,1.2734375 4.97682,2.504455 2.99442,11.2816394 -2.375,10.5156254 -1.365598,-0.19485 -2.24579,-1.157886 -2.46289,-2.69336 -0.282,-1.994478 0.0073,-2.299424 1.75,-1.84375 1.577808,0.41264 2.08789,0.08141 2.08789,-1.359375 0,-2.738812 -5.616657,-2.691747 -6.488281,0.05469 -1.663828,5.24237 4.684378,8.747809 9.455078,5.220703 1.543524,-1.141164 3.082752,-1.798042 3.419922,-1.460938 0.985044,0.985054 0.704656,21.907289 -0.330078,24.628907 -0.518704,1.364328 -1.756336,2.691744 -2.75,2.949218 -0.993674,0.25754 2.243689,0.492585 7.193359,0.521485 6.313284,0.03691 8.328354,-0.217113 6.75,-0.851563 l -2.25,-0.904297 -0.11914,-26.783203 c -0.13683,-30.927744 -0.228692,-29.406956 1.878906,-31.03125 1.332724,-1.027074 0.117329,-1.230065 -6.818359,-1.134765 z m -195.941411,0.01172 c -6.05885,0 -7.85333,0.259643 -6.25,0.904297 l 2.25,0.904297 -0.0156,27.78125 c -0.008,15.27923 -0.34592,28.294089 -0.75,28.917969 -0.40408,0.623804 -1.63438,1.358048 -2.73438,1.632812 -1.09934,0.27482 0.0744,0.551435 2.60938,0.615235 4.38506,0.11038 7.15341,1.257003 19.39062,8.029297 7.40348,4.096746 15.17552,1.33558 18.70508,-6.644532 4.30995,-9.74269 -0.39714,-18.267578 -10.08593,-18.267578 -6.31184,0 -10.11915,2.774677 -10.11915,7.373047 0,3.948056 1.5336,5.626953 5.14063,5.626953 3.11135,0 4.60415,-1.5014 2.35352,-2.365234 -2.23203,-0.856444 -1.9151,-6.339556 0.43945,-7.59961 5.71342,-3.057816 12.0664,1.03894 12.0664,7.783204 0,10.138144 -12.85749,14.37651 -24.93164,8.216796 l -4.06836,-2.076171 V 13.092917 -16.418802 l 2.25,-0.904297 c 1.60399,-0.644654 -0.19049,-0.904297 -6.25,-0.904297 z m 173.000004,0.01563 c -4.67467,0.0086 -7.824934,0.271888 -7,0.585938 0.825,0.31405 1.830361,1.066845 2.234375,1.671875 0.40408,0.604964 0.734375,13.2506056 0.734375,28.099609 0,14.84901 -0.330295,27.510886 -0.734375,28.134766 -0.404014,0.623804 -1.634441,1.358048 -2.734375,1.632812 -1.099934,0.27482 2.05033,0.51671 7,0.53711 4.94967,0.02038 8.325,-0.219219 7.5,-0.533203 -2.697962,-1.027034 -2.968875,-2.599063 -2.984375,-17.298829 -0.01213,-11.510618 0.305182,-14.987733 1.53125,-16.7382808 1.396584,-1.993858 1.396584,-2.1511413 0,-1.6152343 -1.341888,0.514947 -1.546875,-0.9517285 -1.546875,-11.0449219 0,-11.134934 0.09734,-11.677775 2.25,-12.542969 1.600584,-0.643314 -0.203496,-0.899772 -6.25,-0.888672 z m -81.000004,0.857422 h 3.07618 c 4.47173,0 8.5708,4.469527 9.44531,10.3007815 0.9529,6.3539509 -1.04015,14.1737197 -4.25781,16.7050781 -1.39336,1.0959544 -3.82261,1.9941404 -5.39844,1.9941404 h -2.86524 V -2.8543488 Z m -172.19726,4.003906 -3.15234,2.246094 c -1.73334,1.235464 -3.49411,2.2471871 -3.91407,2.2480471 -0.41997,8.5e-4 -2.38224,1.7677699 -4.35937,3.9257813 -3.18925,3.481049 -3.53932,4.38395694 -3.10156,8 0.48319,3.996646 0.46959,4.0195095 -0.75196,1.1777343 l -1.24609,-2.8984375 -1.88867,4.8984375 c -3.27646,8.4939913 -1.86948,16.8358593 3.90234,23.1484373 3.25355,3.558032 0.1581,2.615782 -3.28516,-1 l -3.09375,-3.25 0.4668,4 c 0.97824,8.363442 4.5153,16.837256 7.75,18.56836 3.08738,1.652178 10.87109,8.988825 10.87109,10.246093 0,0.58285 -1.2375,-0.05983 -2.75,-1.427734 -1.51184,-1.367844 -3.63242,-3.140076 -4.71093,-3.9375 -1.83944,-1.360084 -1.83188,-1.263151 0.13476,1.550781 1.15309,1.649934 2.75824,4.575132 3.56641,6.5 0.80817,1.924868 3.13748,5.488411 5.17578,7.917969 6.35131,7.571142 8.5026,13.881725 2.58398,7.582031 -2.63817,-2.808702 -5.1339,-3.470342 -2.82812,-0.75 0.81577,0.962434 2.43731,3.420313 3.60156,5.462891 l 2.11719,3.714844 -2.82422,-0.564454 c -1.58733,-0.317394 -3.12149,-0.08361 -3.50391,0.535157 -0.40944,0.662424 0.12635,1.101562 1.34375,1.101562 1.11311,0 2.51334,0.916156 3.11329,2.03711 1.3009,2.431802 0.91011,10.165535 -0.53907,10.640625 -1.16046,0.380364 -6.64356,-4.361097 -8.14453,-7.042969 -0.82207,-1.468894 -1.59375,-1.625719 -4.4082,-0.896485 l -3.41211,0.884766 7.49219,4.378906 c 4.11999,2.408138 7.67646,4.515193 7.90234,4.681633 0.34018,0.25167 -3.05071,7.31641 -3.51172,7.31641 -0.0808,0 -2.02307,-0.66226 -4.31445,-1.4707 -5.17845,-1.82707 -4.59391,-0.5134 0.86719,1.94922 3.20384,1.44502 4.05402,2.3679 4.07812,4.42382 0.0265,2.26712 0.16281,2.37157 1.0625,0.82618 0.56708,-0.97407 1.41205,-1.53538 1.87695,-1.24805 0.46495,0.28732 0.63212,-0.28862 0.37305,-1.2793 -0.58587,-2.2397 2.84705,-11.129356 6.76172,-17.50976 3.898,-6.353178 7.52114,-17.632804 8.25391,-25.691406 0.48414,-5.324264 0.36441,-6.204618 -0.66016,-4.865234 -1.03398,1.351674 -1.24631,0.311544 -1.22461,-6 0.0251,-7.315788 -1.34443,-12.824694 -4.01172,-16.134766 -0.66476,-0.824934 -1.51484,-3.206007 -1.88867,-5.291015 -0.37384,-2.085008 -3.35417,-9.013208 -6.625,-15.394532 -5.37388,-10.4855406 -5.94727,-12.2008505 -5.94727,-17.8007809 0,-3.4080056 0.62956,-8.2923872 1.4004,-10.8535156 z m 311.39453,0 1.400391,4.6562505 c 0.770774,2.5611284 1.402343,7.44551 1.402343,10.8535156 0,5.5999304 -0.573056,7.3152403 -5.9472652,17.8007809 -3.2706188,6.38124 -6.25313825,13.309524 -6.62695317,15.394532 -0.37380558,2.085008 -1.28747963,4.488432 -2.02929683,5.341796 -0.7418238,0.85343 -2.1305135,4.53297 -3.0859375,8.175782 -1.4018876,5.344974 -1.5361263,7.604258 -0.6972657,11.699218 0.571707,2.790928 0.9062775,5.074219 0.7441407,5.074219 -0.1621534,0 -0.992736,-1.237566 -1.8457032,-2.75 -1.482341,-2.628322 -1.5224513,-2.440328 -0.9277343,4.25 0.7522772,8.462892 4.306724,19.662138 8.31249995,26.191406 3.91441255,6.380318 7.34559605,15.27006 6.75976565,17.50976 -0.2646268,1.01198 -0.043278,1.53744 0.5039062,1.19922 0.535687,-0.33109 1.2807964,0.45522 1.65625,1.74805 0.6198644,2.13452 0.7109664,2.05469 0.9941404,-0.87891 0.26523,-2.74646 0.976364,-3.52593 4.75,-5.19531 5.60108,-2.47777 5.784733,-3.4607 0.283203,-1.51953 -2.285592,0.80647 -4.222034,1.34845 -4.302734,1.20508 -0.08067,-0.14338 -0.928432,-1.51103 -1.8847656,-3.03907 -0.9563406,-1.52737 -1.5047171,-3.15911 -1.2167969,-3.625 0.2879102,-0.46589 3.7958025,-2.794203 7.7929685,-5.173821 l 7.267578,-4.326172 -3.5,-0.757812 c -2.740052,-0.59311 -3.71707,-0.398816 -4.5,0.892578 -1.670358,2.754841 -6.895161,7.30301 -7.9804684,6.947266 C 5.9095846,97.846828 5.5161758,90.114563 6.81765,87.682761 c 0.5999104,-1.120954 2.002197,-2.03711 3.1152344,-2.03711 1.2179936,0 1.7531896,-0.439138 1.3437496,-1.101562 -0.382354,-0.6188 -1.9166815,-0.852551 -3.5039059,-0.535157 l -2.8242187,0.564454 2.1171875,-3.714844 c 1.1641708,-2.042578 2.7839117,-4.500457 3.5996091,-5.462891 2.296158,-2.709142 -0.317461,-2.06477 -2.9707029,0.732422 -1.2951442,1.365434 -2.7042723,2.491 -3.1308593,2.5 -1.1643374,0.02594 1.9271155,-5.512514 5.1464843,-9.21875 1.5589989,-1.794798 4.3118709,-5.96387 6.1152349,-9.263672 1.803288,-3.299736 3.781824,-6.675066 4.396484,-7.5 0.986454,-1.323948 0.882571,-1.33073 -0.882813,-0.05078 -1.099934,0.797424 -3.297201,2.597556 -4.880859,4 -2.799512,2.479118 -2.845164,2.486581 -1.6875,0.251953 0.654864,-1.264134 3.815586,-4.336977 7.023438,-6.828125 5.623824,-4.367336 9.044921,-9.888506 9.044921,-14.597656 0,-0.911584 0.375085,-1.890284 0.833985,-2.173828 0.458834,-0.28362 0.90644,-2.34692 0.99414,-4.585938 l 0.160157,-4.072265 -3.097657,3.527343 c -1.703488,1.940178 -3.581087,3.529297 -4.169921,3.529297 -0.58889,0 -0.143183,-1.012566 0.988281,-2.25 5.772084,-6.312578 7.176652,-14.654446 3.90039,-23.1484373 L 26.559838,1.3487762 25.313744,4.2472137 c -1.221484,2.8417752 -1.235803,2.8189117 -0.751953,-1.1777343 0.437694,-3.61604306 0.0877,-4.518951 -3.101563,-8 -1.976998,-2.1580114 -3.937452,-3.9249313 -4.357422,-3.9257813 -0.419894,-8.6e-4 -2.182807,-1.0125831 -3.916015,-2.2480471 z M -307.4929,0.26869812 c 0.14801,0.2476833 0.0505,1.33922208 -0.24023,3.50781248 -0.93982,7.0145084 1.17956,15.0829244 7.57812,28.8691404 7.01753,15.1183 8.66459,20.477988 9.4336,30.679688 0.32422,4.30105 0.18863,10.29551 -0.30078,13.320312 -0.80205,4.95697 -0.90124,4.350469 -1.01368,-6.144531 -0.14224,-13.275082 -1.92988,-20.509711 -8.11523,-32.855469 -8.19912,-16.364728 -11.48185,-31.065879 -8.15625,-36.535156 0.2487,-0.40901294 0.44119,-0.68840748 0.58203,-0.81640625 0.10563,-0.0959989 0.18309,-0.10795108 0.23242,-0.0253906 z M 16.436791,0.33901062 C 16.573556,0.44411449 16.760526,0.7087739 17.001244,1.110495 20.30566,6.625462 17.014406,21.310561 8.802025,37.694479 2.301114,50.663991 0.66724618,57.671658 1.0266344,71.03237 1.1985212,77.421294 1.2527615,82.648604 1.1477281,82.647604 0.00938466,82.635894 -0.49366316,78.396102 -0.5026625,68.723776 -0.51549184,54.83143 0.685119,50.185819 8.8078844,32.645651 15.553743,18.078801 17.322327,11.522454 16.450463,4.3175262 16.06662,1.1457024 16.026299,0.02370033 16.436791,0.33901062 Z M -213.50462,33.571432 c -0.0372,0.003 -0.0743,0.0032 -0.11132,0.002 0.0333,0.402321 0.0703,0.40655 0.11132,-0.002 z m 57.76954,15.574219 c -9.23106,0 -10.40776,0.221711 -14.08985,2.658203 -5.12606,3.392502 -7.06401,7.669938 -5.34961,11.808594 0.6759,1.631638 1.82041,3.456961 2.54297,4.056641 0.76948,0.638544 0.54293,-0.419107 -0.54492,-2.552735 -2.27885,-4.46949 -1.50642,-7.137523 2.93945,-10.171875 6.71564,-4.58279 16.8717,-3.579818 30.07617,2.96875 l 4.5,2.232422 0.2793,35 c 0.15342,19.248679 0.0261,36.031659 -0.28125,37.292969 -0.30738,1.26131 -1.55825,2.69422 -2.7793,3.18555 -1.53093,0.61628 0.72802,0.8896 7.28125,0.8789 7.53235,-0.0123 8.93042,-0.22317 6.75,-1.01953 l -2.75,-1.00586 V 99.561667 c 0,-19.202916 0.16844,-34.916016 0.375,-34.916016 0.20656,0 2.91262,1.120814 6.01368,2.492188 l 5.63867,2.49414 -0.26367,32.226561 -0.26368,32.22852 -2.5,1.26367 c -2.36499,1.19647 -2.24948,1.2654 2.17188,1.2793 4.38709,0.0138 4.73832,0.21637 5.75391,3.29296 1.68036,5.09354 6.59845,10.33065 11.611324,12.36719 4.178326,1.69761 4.993957,2.64322 9.617187,11.16797 2.777942,5.12263 4.823865,9.54136 4.546875,9.81836 -0.276934,0.27699 -7.409856,-1.28652 -15.851566,-3.47461 -8.44138,-2.18808 -17.46224,-4.26782 -20.04492,-4.62109 -6.12089,-0.83733 -12.09439,0.8382 -16.09375,4.51367 l -3.21094,2.95117 5,-2.17187 c 7.17754,-3.11773 14.21218,-2.65864 32,2.08984 13.207026,3.52537 24.500004,5.15415 24.500004,3.53516 0,-0.30062 -3.179377,-5.13878 -7.064453,-10.75 l -7.064453,-10.20313 5.962891,-0.67969 c 11.300488,-1.28489 19.733229,-8.08688 22.707031,-18.3164 3.394612,-11.67709 0.182151,-18.81985 -14.667969,-32.6211 -11.803348,-10.96921 -13.873047,-13.843375 -13.873047,-19.251949 0,-4.89565 0.816346,-6.486265 4.242188,-8.257813 6.030424,-3.118452 12.478956,0.372418 15.298828,8.28125 1.369474,3.840786 1.369938,3.837355 1.398438,-4.154297 0.01644,-4.60027 -0.322539,-7.446226 -0.798829,-6.695312 -0.620524,0.978414 -2.685135,1.150884 -8.234375,0.6875 -6.406128,-0.53503 -7.847053,-0.340667 -10.666015,1.435547 -6.307354,3.974096 -8.843089,11.663481 -6.185547,18.755859 0.580094,1.548178 6.345836,7.992065 12.8125,14.316405 6.466588,6.32434 12.517598,13.14227 13.445312,15.15039 2.280238,4.93571 2.159089,14.21447 -0.255859,19.5332 -2.527182,5.56675 -8.20123,9.2681 -15.330078,10.00391 -9.85484,1.01718 -19.481357,-5.24369 -22.197267,-14.4375 -0.60701,-2.05497 -0.33414,-2.25212 3.15235,-2.26562 3.72788,-0.0144 3.76016,-0.0432 1.31835,-1.27344 -2.10498,-1.06087 -2.54829,-2.07355 -2.80078,-6.41406 -0.26123,-4.49145 0.0708,-5.56835 2.58203,-8.37891 2.4472,-2.73888 3.7314,-3.29727 8.507817,-3.69336 5.22457,-0.43329 5.841091,-0.24889 8.667969,2.57813 2.072188,2.07166 3.042968,4.02393 3.042968,6.11914 0,3.10994 -2.907292,7.04892 -5.25,7.11132 -0.687434,0.0183 -0.187035,0.91896 1.111329,2 4.64658,3.87126 10.274296,1.57972 12.240234,-4.98242 1.017134,-3.39448 0.890771,-4.43639 -1.029297,-8.40234 -4.279756,-8.84068 -16.808868,-11.39715 -26.01172,-5.30664 l -4.06055,2.68554 V 94.659323 70.645651 l 4.25,-0.02148 c 5.278454,-0.02728 12.191861,-3.067354 13.796879,-6.066406 l 1.208985,-2.259766 -2.763672,2.173828 c -2.118428,1.666328 -4.121221,2.173828 -8.591797,2.173828 -7.153355,0 -11.991555,-1.576425 -27.400395,-8.929687 -18.00044,-8.590372 -17.93312,-8.570313 -29.07421,-8.570313 z m -90.29102,0.5 c -3.53379,0 -8.13477,4.850456 -8.13477,8.576172 0,2.255808 -0.36253,2.424688 -5.25,2.429688 -7.65107,0.0081 -12.2668,1.614408 -16.66992,5.802734 -4.53927,4.318466 -6.01835,9.512387 -4.05664,14.248047 3.18339,7.684852 12.74457,8.15886 16.53906,0.820312 1.74984,-3.383576 1.43296,-4.783841 -0.54296,-2.402343 -1.78412,2.149532 -6.65074,1.894058 -9.01954,-0.47461 -2.23382,-2.234348 -2.58888,-6.613857 -0.8457,-10.439453 1.5828,-3.473596 8.36325,-6.560587 14.41016,-6.560547 4.43989,3e-5 5.21597,0.350438 7.72851,3.5 1.53595,1.924848 2.39143,3.5 1.90235,3.5 -0.48907,0 -2.48161,1.545619 -4.42774,3.435547 -8.32248,8.082802 -6.47776,23.007581 3.44922,27.900391 1.805,0.889651 4.53494,1.628121 6.06445,1.640621 12.45766,0.10196 21.21759,-16.715029 13.69141,-26.283199 -2.78322,-3.538092 -2.49823,-4.033803 1.90234,-3.330079 4.79955,0.76747 9.80307,-0.880592 11.29102,-3.71875 1.09882,-2.095832 1.07878,-2.103292 -0.91602,-0.333984 -1.77694,1.576694 -3.14241,1.721025 -10.56054,1.119141 -8.25771,-0.67008 -8.59944,-0.611311 -11.10547,1.894531 -1.42184,1.421764 -2.58399,3.313271 -2.58399,4.203125 0,1.386974 0.36535,1.330296 2.5625,-0.398438 3.99011,-3.138356 8.63408,-0.544761 10.56641,5.904297 3.07243,10.2542 -7.322,19.380886 -15.9375,13.994141 -3.51629,-2.198488 -7.14844,-8.817768 -7.14844,-13.027344 0,-3.877946 3.36797,-10.354936 6.15821,-11.84375 l 2.51953,-1.345703 -2.41406,-2.414062 c -2.83324,-2.833108 -2.27807,-4.396485 1.56054,-4.396485 3.31147,0 5.69672,-1.713253 6.59375,-4.734375 0.91022,-3.065582 -3.3248,-7.265625 -7.32617,-7.265625 z m 208.867188,0.398438 c -4.39772,0.182333 -8.576413,2.088773 -12.503907,5.708984 -6.502398,5.993734 -8.880137,11.710808 -8.898437,21.392578 -0.0229,12.081858 5.164373,21.669695 13.859375,25.619139 4.90787,2.22948 10.654464,2.39001 14.49414,0.4043 2.863278,-1.48073 7.752367,-8.149979 6.726563,-9.175783 -0.840854,-0.840854 -2.679688,0.605304 -2.679688,2.107422 0,0.73557 -1.591148,2.734233 -3.535156,4.441411 -2.706582,2.37593 -4.48109,3.10351 -7.576172,3.10351 -8.895536,0 -12.470923,-8.714308 -11.683593,-28.474608 0.612374,-15.37121 4.036002,-22.623973 11.375,-24.091797 3.824666,-0.764924 7.976433,2.399312 10.457031,7.972656 l 1.820312,4.09375 0.07227,-6.800781 c 0.0621,-5.976894 -0.125168,-6.689045 -1.544922,-5.894531 -0.964214,0.539614 -3.347027,0.533252 -5.912109,-0.01367 -1.513294,-0.322767 -3.00484,-0.453356 -4.470703,-0.392578 z m -209.300778,0.777343 c 2.16653,0.41117 2.99089,5.284898 1.24804,7.384766 -0.65708,0.791674 -2.26461,1.439453 -3.57226,1.439453 -2.03413,0 -2.37696,-0.489424 -2.37696,-3.378906 0,-3.728786 1.93495,-5.970057 4.70118,-5.445313 z m 20.99218,0.894532 c -2.04492,0.169482 -4.08848,0.891362 -5.3789,2.103515 -2.50499,2.353188 -2.90912,4.845483 -1.2793,7.890625 1.44583,2.701408 2.96484,2.412779 2.96484,-0.564453 0,-2.915592 3.20284,-6.5 5.8086,-6.5 2.1694,0 4.54356,1.769558 6.03711,4.5 0.60165,1.099934 1.10634,1.407188 1.12304,0.683594 0.0424,-1.835918 -1.99001,-5.44916 -3.88281,-6.902344 -1.29947,-0.997639 -3.347,-1.38042 -5.39258,-1.210937 z m 10.82618,1.396484 c 0.002,0.252015 0.32922,1.121182 0.98437,2.75 0.82243,2.044708 1.53082,4.969972 1.57422,6.5 0.0434,1.530084 0.31431,2.19547 0.60156,1.478516 0.77292,-1.929178 -0.48915,-7.567937 -2.1875,-9.771485 -0.64959,-0.842794 -0.97444,-1.209046 -0.97265,-0.957031 z m 180.902339,12.591797 c -0.487324,-0.232502 -1.997363,0.836723 -3.792968,2.970703 -4.87797,5.797134 -4.368193,15.67035 1.029297,19.916016 3.244556,2.552182 3.690901,2.574388 2.376953,0.11914 -0.56935,-1.063774 -1.035157,-5.817397 -1.035157,-10.564453 0,-4.74699 0.465807,-9.502632 1.035157,-10.566406 0.603725,-1.128125 0.679152,-1.735499 0.386718,-1.875 z m 5.13086,0.390625 c -0.249545,0.116173 -0.0503,0.743295 0.460937,2.087891 1.608304,4.23001 1.229776,17.670262 -0.570312,20.240234 -1.939858,2.769522 -0.537657,2.871529 2.849609,0.207031 6.455044,-5.07752 5.688011,-18.247786 -1.279297,-21.976562 -0.457662,-0.244968 -0.806126,-0.422459 -1.05664,-0.511719 -0.187935,-0.06695 -0.321116,-0.08562 -0.404297,-0.04687 z m -124.257809,8.521484 c -0.76743,-0.0054 -0.73052,0.718773 0.62695,2.175782 1.09979,1.180358 2.34895,4.218122 2.77734,6.75 1.22891,7.262952 0.66896,21.286184 -1.01172,25.308594 -3.39788,8.13321 -9.92565,4.74747 -11.24804,-5.83594 -1.47659,-11.817296 1.00633,-26.179332 4.78906,-27.70117 0.74179,-0.29845 0.49428,-0.543744 -0.5957,-0.589844 -1.0272,-0.04342 -3.56173,1.614596 -5.63086,3.683594 -8.87889,8.878956 -6.93589,29.54195 3.2539,34.60547 3.90473,1.94022 8.26946,1.29098 11.625,-1.72656 8.42293,-7.57466 8.19424,-27.715846 -0.39062,-34.468754 -1.85682,-1.460473 -3.42789,-2.195779 -4.19531,-2.201172 z m -27.29493,0.128907 c -6.64685,0.02806 -8.02898,0.263747 -6.33789,1.082031 1.18976,0.575464 2.4211,2.007022 2.73633,3.18164 0.98468,3.669402 0.65388,51.364808 -0.375,54.070308 -0.53639,1.41081 -1.77389,2.62793 -2.75,2.70313 -0.97611,0.0753 0.93541,0.44685 4.24414,0.82617 4.51232,0.51719 7.74627,1.73414 12.93555,4.86328 7.98878,4.81866 13.0136,5.40687 18.35742,2.14844 6.41204,-3.90972 8.37867,-15.22034 3.62891,-20.86523 -4.44501,-5.28259 -14.48733,-5.01886 -18.08594,0.47265 -3.06843,4.68301 0.84789,10.3358 6.22461,8.98633 2.38551,-0.59872 2.38594,-0.60495 0.40625,-2.58398 -2.9885,-2.9885 -2.46552,-5.64458 1.52539,-7.74219 5.34634,-2.81037 10.99023,1.52688 10.99023,8.44531 0,3.79312 -0.49872,4.92231 -3.26562,7.39453 -2.93073,2.61861 -3.95732,2.91619 -10,2.89649 -4.47647,-0.0146 -8.15926,-0.66881 -10.98438,-1.95118 l -4.25,-1.92968 v -29.68946 c 0,-27.100114 0.15312,-29.80494 1.75,-31.017574 1.49773,-1.136874 0.52467,-1.321715 -6.75,-1.291015 z m -32.89843,0.929687 c -8.37039,0.02194 -11.11355,0.315427 -9.85157,1.050781 1.55955,0.908284 1.75,2.895857 1.75,18.253907 v 17.234374 l -2.8789,1.70117 c -4.06711,2.4025 -6.4702,7.94639 -5.8457,13.48633 0.62698,5.56837 3.13303,9.00507 8.71093,11.95508 6.11557,3.234 14.89536,3.15305 21.56641,-0.19531 13.97527,-7.01587 13.7888,-25.16244 -0.33399,-32.40821 l -3.47851,-1.78515 3.41797,-2.11133 c 6.54186,-4.043272 9.74434,-13.892588 6.5625,-20.181642 -0.68741,-1.358434 -2.77265,-3.496066 -4.63281,-4.75 -3.04722,-2.053388 -4.53743,-2.2774 -14.98633,-2.25 z m -35.31055,0.599609 c -0.43506,0.26888 -0.73958,2.599846 -0.67578,5.179688 0.12177,4.92385 0.53129,4.195123 1.11719,-1.988281 0.19176,-2.023788 -0.006,-3.460221 -0.44141,-3.191407 z m 35.20898,0.371094 h 3.27735 c 4.45921,0 7.44198,2.330097 8.67773,6.779297 1.96734,7.083278 0.53299,14.82235 -3.49218,18.847652 -2.25156,2.25156 -6.35362,3.14835 -7.79688,1.70508 -0.36667,-0.36666 -0.66602,-6.66712 -0.66602,-13.999998 z M -18.656959,98.28237 c -1.990568,0.763834 -2.70794,3.41283 -1.363282,5.0332 1.537964,1.85322 4.243238,1.28583 4.679688,-0.98047 0.439664,-2.28269 -1.560028,-4.726704 -3.316406,-4.05273 z m -191.042971,7.35547 c 4.69414,-0.046 10.03549,5.40256 11.60547,12.41797 2.19583,9.81134 -1.63503,18.59783 -9.38281,21.52539 -7.96554,3.00984 -17.82836,-2.06565 -19.57813,-10.07422 -0.92293,-4.22452 0.12553,-9.35404 2.43164,-11.90234 3.30239,-3.64909 11.46289,-1.7566 11.46289,2.6582 0,0.81072 -1.16062,2.63328 -2.57812,4.05078 -2.85337,2.85337 -2.35692,3.99489 2.125,4.89062 4.53404,0.90694 8.45312,-2.56722 8.45312,-7.49609 0,-4.13945 -2.76946,-8.5363 -6.02734,-9.57031 -2.36912,-0.75193 -2.7157,-5.27132 -0.4707,-6.13281 0.63127,-0.24225 1.28839,-0.36061 1.95898,-0.36719 z m -98.55469,10.00781 c -1.48496,0 -1.02896,3.73471 0.66407,5.42774 0.86428,0.86363 2.55178,1.5547 3.75,1.5332 1.72714,-0.031 1.48071,-0.34392 -1.1875,-1.50195 -2.60072,-1.12911 -3.24766,-1.91639 -2.84375,-3.46094 0.28756,-1.09962 0.11569,-1.99805 -0.38282,-1.99805 z m 325.187504,0 c -0.498444,0 -0.672325,0.89843 -0.384765,1.99805 0.403844,1.54455 -0.243228,2.33183 -2.84375,3.46094 -2.668738,1.15803 -2.914574,1.47095 -1.1875,1.50195 1.198154,0.0215 2.885786,-0.66957 3.75,-1.5332 1.692898,-1.69303 2.151569,-5.42774 0.666015,-5.42774 z m -30.296875,23.18359 c -0.09744,-0.05 -0.318788,0.0206 -0.642578,0.22071 -0.634914,0.39244 -1.154297,1.617 -1.154297,2.7207 0,5.58917 5.369241,8.875 14.50000038,8.875 6.73729772,0 11.49610862,-1.86132 16.63671862,-6.50586 4.215836,-3.80833 6.858528,-4.3558 9.291016,-1.92383 2.350302,2.3505 1.927719,4.27385 -1.748047,7.94922 -4.538156,4.53842 -12.60437,6.76164 -24.6796876,6.80274 -10.8736444,0.037 -15.0417854,-0.94283 -27.2519534,-6.40625 -9.115996,-4.07944 -15.809184,-5.02335 -19.9375,-2.81446 -4.054436,2.17001 -23.991095,22.98562 -23.425781,24.45899 1.427894,3.72052 11.447952,0.22061 18.615234,-6.50391 l 4.5,-4.2207 -5,3.96094 c -6.648318,5.26845 -9.211978,6.49286 -12.09375,5.76953 -3.382846,-0.84911 -3.020209,-2.17154 1.753907,-6.39063 2.288212,-2.02226 6.737253,-6.23444 9.884765,-9.35937 6.689634,-6.64301 10.491073,-7.8727 16.529297,-5.34961 4.79068,2.00182 7.307918,4.31755 12.710938,11.69726 2.308782,3.1538 5.327757,6.2694 6.707031,6.92188 3.618716,1.71192 26.466862,2.40943 33.001953,1.00781 6.775928,-1.45327 16.796541,-5.89997 17.953125,-7.9668 0.557974,-0.99649 0.349285,-2.5851 -0.574219,-4.37109 -0.797944,-1.54318 -1.924352,-5.38245 -2.503906,-8.53125 -1.242624,-6.75044 -2.015435,-7.87802 -5.994141,-8.75195 -2.291062,-0.50325 -4.704428,0.19104 -10.361328,2.98633 -5.8906874,2.91019 -8.5435593,3.64916 -13.19335912,3.66796 -3.20107878,0.0129 -7.01380208,-0.43158 -8.47070308,-0.98828 -3.0179218,-1.15318 -6.0693408,-4.97634 -5.1542968,-6.45703 0.171865,-0.27808 0.199006,-0.44804 0.101562,-0.49805 z m -264.601559,0.004 c -0.0853,0.0647 -0.0351,0.26362 0.16406,0.58594 0.36784,0.59517 -0.41482,2.34094 -1.73828,3.8789 -2.16635,2.51853 -3.16071,2.8357 -9.97266,3.17969 -7.08414,0.35776 -8.04202,0.14636 -15.05078,-3.3164 -5.84202,-2.88692 -8.15942,-3.55258 -10.55078,-3.02735 -3.56511,0.78303 -4.40569,2.10341 -5.92773,9.31055 -0.61582,2.91498 -1.7552,6.52924 -2.53125,8.03125 -0.89517,1.73105 -1.09281,3.30456 -0.53711,4.29687 1.23611,2.21 11.69539,6.70547 18.61523,8.00196 7.22109,1.35292 28.8511,0.59529 32.54492,-1.14063 1.4915,-0.70081 3.83859,-2.97698 5.21485,-5.05664 4.51752,-6.82677 9.00411,-11.23612 13.42578,-13.1914 6.50318,-2.87699 10.16259,-1.7883 17.07617,5.07421 3.15049,3.12722 7.66854,7.36422 10.03906,9.41602 3.62768,3.13993 4.11022,3.9711 3.04883,5.25 -1.70112,2.04973 -3.86917,1.90526 -7.8457,-0.51953 -1.8315,-1.11662 -3.01382,-1.51657 -2.62696,-0.89063 0.38685,0.62595 2.56043,1.98107 4.83008,3.01172 4.94497,2.24553 9.4829,2.4572 10.24219,0.47852 0.56538,-1.47337 -19.37174,-22.28898 -23.42578,-24.45899 -4.12858,-2.20889 -10.82287,-1.26498 -19.93946,2.81446 -12.20964,5.46342 -16.37629,6.44325 -27.25,6.40625 -12.07479,-0.0411 -20.14322,-2.26432 -24.68164,-6.80274 -3.70432,-3.70432 -4.10007,-5.59719 -1.67578,-8.02148 2.17752,-2.17752 5.97677,-1.20671 9.85742,2.51953 4.16847,4.00194 9.46432,5.98242 16,5.98242 9.13136,0 14.5,-3.28583 14.5,-8.875 0,-1.1037 -0.51931,-2.32826 -1.15429,-2.7207 -0.34387,-0.21253 -0.56513,-0.2815 -0.65039,-0.2168 z m 81.875,12.9082 c -0.15806,-0.39402 -3.05303,3.77271 -9.05664,12.79688 l -8.24414,12.39258 6.86523,-0.53711 c 3.77591,-0.29539 12.94089,-2.2311 20.36523,-4.30078 15.95455,-4.44887 23.35742,-4.83588 29.78907,-1.55469 2.31473,1.18122 4.21093,1.75914 4.21093,1.2832 0,-1.72955 -3.92,-4.34845 -8.63476,-5.76758 -5.94976,-1.78995 -14.03146,-0.83861 -29.36524,3.45704 -14.61933,4.09503 -16,4.35938 -16,3.05273 0,-0.61628 2.5418,-5.9135 5.64844,-11.76953 3.01338,-5.68087 4.54481,-8.74627 4.42188,-9.05274 z m 158.509763,6.96289 c -3.360535,-0.27133 -7.675974,0.32413 -9.138672,1.4961 -1.874993,1.50228 -1.867661,1.51928 0.242187,0.5 2.923332,-1.4123 7.633011,-1.33776 9.115235,0.14453 3.877346,3.87761 -1.121799,10.03563 -16.632813,20.48437 -49.84714,33.58092 -133.72184,33.33191 -184.16602,-0.54687 -18.07782,-12.14137 -22.14303,-20.04996 -10.99609,-21.39453 3.04425,-0.36718 2.89247,-0.44268 -1.17187,-0.58203 -2.56752,-0.088 -5.40967,0.1235 -6.31446,0.4707 -0.90479,0.3472 -3.02381,3.54922 -4.70898,7.11523 -1.83974,3.89381 -5.60904,9.18394 -9.43555,13.24024 -3.50502,3.71551 -6.37305,7.25427 -6.37305,7.86328 0,1.85682 10.43325,11.50584 17.66993,16.33984 21.38372,14.28665 53.88694,24.11151 92.06054,27.82813 13.44745,1.30923 43.87821,0.28333 59.26953,-1.99805 40.183794,-5.95545 71.641812,-18.6574 88.63477,-35.78711 2.950862,-2.97407 5.365234,-5.94082 5.365234,-6.59179 0,-0.65097 -2.848193,-4.11685 -6.328125,-7.70118 -3.989606,-4.10866 -7.477092,-8.94883 -9.4375,-13.09765 -1.709928,-3.61935 -3.849182,-6.86374 -4.753906,-7.21094 -0.767069,-0.29437 -1.780277,-0.4816 -2.90039,-0.57227 z M -162.34446,179.6809 c -1.60247,0.0362 -3.63567,0.14237 -6.3125,0.28711 -6.05178,0.32725 -14.73611,1.51064 -19.29687,2.63086 -7.57215,1.85896 -8.60566,1.90622 -11.87305,0.54101 -5.07652,-2.1211 -5.30754,-1.8478 -1.33399,1.56641 3.88342,3.33554 4.76885,3.35976 17.5,0.49219 9.04149,-2.03676 26.5,-3.23468 26.5,-1.81836 0,1.9152 6.75442,4.26562 12.26172,4.26562 4.24708,0 6.31902,-0.5851 9.33594,-2.63281 3.65392,-2.47963 4.36478,-2.5975 12.27734,-2.03906 4.6192,0.32598 13.24747,1.59251 19.17188,2.81445 l 10.773437,2.22266 3.623047,-3.1836 c 4.135516,-3.63061 4.039591,-3.76113 -1.230469,-1.65234 -3.539126,1.41618 -4.459989,1.37367 -12.269535,-0.56641 -4.64333,-1.15364 -13.40122,-2.35066 -19.45898,-2.66015 -10.68791,-0.54602 -11.13132,-0.48473 -14.89063,2.0664 -5.2269,3.5479 -10.96528,3.55553 -16.19921,-0.006 -2.83517,-1.92399 -3.77072,-2.43661 -8.57813,-2.32812 z m -126.875,4.9707 c -0.17622,-0.008 -0.59862,0.30449 -1.36133,0.93359 -1.38973,1.14747 -2.13293,1.19718 -3.66211,0.24219 -1.05534,-0.65907 -1.91797,-0.78226 -1.91797,-0.27344 0,0.50883 0.56316,1.15968 1.25,1.44727 2.16906,0.90734 5.07407,0.20249 5.58399,-1.35547 0.21473,-0.65608 0.28364,-0.98567 0.10742,-0.99414 z m 288.24218813,0.17578 c -0.28447393,-0.14794 -0.55049193,-0.14549 -0.73046873,0.0312 -0.3596002,0.35998 -0.3566898,1.13477 0.00586,1.7207 1.0973141,1.77562 6.5410156,0.90211 6.5410156,-1.04882 0,-0.49582 -0.9145426,-0.33669 -2.03125,0.35547 -1.6742544,1.03707 -2.19076268,1.00208 -2.94531252,-0.21094 -0.2516385,-0.40477 -0.55536914,-0.69972 -0.83984375,-0.84766 z m -41.84179713,0.29297 c 0.473891,0.0182 0.835054,0.41335 1.408203,1.19727 0.68774,0.94054 1.25,2.07465 1.25,2.51953 0,1.30328 -2.790422,0.92764 -3.279296,-0.44141 -0.24554,-0.6875 -0.77829,-0.94166 -1.183594,-0.56641 -1.381574,1.28122 0.574298,2.81641 3.58789,2.81641 6.172144,0 8.954022,3.90463 5.125,7.19336 -3.248936,2.79058 -4.763188,2.71836 -6.498046,-0.30469 -1.421954,-2.47707 -1.446797,-2.88867 -0.173829,-2.88867 0.81668,0 1.744033,0.675 2.060547,1.5 0.845174,2.20266 3.361328,1.82838 3.361328,-0.5 0,-1.60993 -0.666626,-2 -3.417968,-2 -1.879888,0 -4.130086,-0.27357 -5,-0.60742 -2.329088,-0.8938 -1.925054,-5.03911 0.667968,-6.85547 1.031154,-0.72229 1.617971,-1.0807 2.091797,-1.0625 z m -206.595701,0.14844 c 0.47964,0.26422 0.6275,1.33742 0.43945,3.22461 -0.35469,3.55889 0.3336,3.89585 3.00977,1.47461 1.24769,-1.12914 2.18073,-1.34662 2.86133,-0.66602 0.67994,0.6806 -0.18902,2.86139 -2.66602,6.67774 -2.0226,3.1156 -4.03592,5.66601 -4.47461,5.66601 -1.73313,0 -2.02623,-2.22123 -0.51367,-3.89258 2.06602,-2.2823 2.08731,-3.74224 0.0254,-1.67968 -1.55266,1.55201 -3.42774,2.10308 -3.42774,1.00585 0,-0.3105 0.47367,-1.54866 1.05274,-2.75 0.74042,-1.53541 0.30713,-1.3049 -1.45703,0.77735 -4.14798,4.89525 -4.1344,2.02977 0.0215,-4.41797 2.61009,-4.05052 4.32951,-5.86029 5.12891,-5.41992 z m 196.927733,7.44336 c 1.472336,0.16075 2.707894,0.77689 3.255859,1.80078 0.549934,1.02768 0.710406,2.15867 0.357422,2.51172 -0.35305,0.35305 0.591368,1.92763 2.097656,3.5 2.354908,2.45813 2.506209,2.94853 1.087891,3.49218 -1.045274,0.40113 -2.33682,-0.19193 -3.527344,-1.61914 -1.552434,-1.86038 -1.884675,-1.95776 -1.912109,-0.56054 -0.0183,0.93004 0.416862,1.96867 0.966796,2.30859 0.55,0.33992 1,0.99247 1,1.45117 0,0.4587 -0.580868,1.05634 -1.289062,1.32813 -0.789664,0.30304 -2.698692,-1.97506 -4.9375,-5.89063 -3.439282,-6.01447 -3.541642,-6.44243 -1.777344,-7.38672 1.496099,-0.80007 3.205333,-1.0963 4.677735,-0.93554 z m -183.056643,0.18554 c 0.35172,0.0764 0.72596,0.31214 1.22266,0.62696 1.10668,0.70145 1.03757,1.96041 -0.39844,7.23437 -0.95615,3.51203 -2.01429,6.70415 -2.34961,7.09375 -0.91915,1.06794 -3.44519,-0.82665 -2.70312,-2.02734 0.35443,-0.57349 0.13608,-1.35481 -0.48438,-1.73828 -0.62046,-0.38346 -1.47728,-0.13234 -1.9043,0.55859 -0.42702,0.69097 -1.26015,0.95731 -1.85156,0.5918 -0.67319,-0.41606 0.49885,-2.87446 3.13672,-6.57422 3.41547,-4.79037 4.27687,-5.99474 5.33203,-5.76563 z m 181.935549,1.74805 c -1.251944,0 -1.314049,0.43255 -0.359375,2.52734 0.735504,1.61441 1.498118,2.17962 2.111328,1.56641 1.305354,-1.30542 0.112215,-4.09375 -1.751953,-4.09375 z m -9.013672,2.51367 c 0.846579,0.14121 0.753244,0.74377 -0.796875,1.61133 -2.508678,1.404 -2.29621,4.18568 0.257812,3.375 1.147244,-0.36414 2,-0.18067 2,0.43164 0,0.58707 -0.45,1.06836 -1,1.06836 -1.492968,0 -1.208642,2.35829 0.550782,4.55859 1.514868,1.89512 1.537338,1.88925 0.958984,-0.2246 -0.848004,-3.1003 0.992904,-3.73984 2.804688,-0.97461 1.476618,2.25315 1.404863,2.4028 -1.923829,3.99023 -1.902328,0.90723 -3.556941,1.64181 -3.675781,1.63281 -0.22157,-0.0175 -4.195066,-9.18574 -5.25,-12.11328 -0.426624,-1.18404 0.294578,-1.94002 2.634766,-2.75586 0.887816,-0.30951 1.669531,-0.49624 2.298828,-0.58008 0.471957,-0.0629 0.85841,-0.0666 1.140625,-0.0195 z m -163.412107,0.62891 c 1.19149,-0.22561 2.4217,0.0814 3.9082,0.87695 1.60748,0.8603 1.72933,1.39885 0.78711,3.4668 -1.26234,2.77053 -3.26016,2.29229 -2.50391,-0.59961 0.59148,-2.26183 -1.53492,-2.53704 -3.28711,-0.42578 -1.60291,1.93218 -2.61561,9.53906 -1.26953,9.53906 1.54091,0 2.47135,-3.23657 1.16407,-4.04492 -1.85507,-1.1465 0.64435,-2.1001 3.57421,-1.36524 2.28517,0.57354 2.4264,0.84248 1.19727,2.2793 -0.76689,0.89648 -1.67233,2.41836 -2.01367,3.38086 -0.80831,2.2793 -3.93226,2.23843 -6.0293,-0.0801 -2.47625,-2.73557 -2.09506,-7.82096 0.80078,-10.71679 1.3286,-1.3286 2.48039,-2.08494 3.67188,-2.31055 z m 11.46484,3.85742 c 1.83474,0 1.79353,0.47019 -0.68359,7.80469 -1.98652,5.88174 -3.12104,7.27734 -4.32813,5.32422 -0.93207,-1.50812 3.50408,-13.12891 5.01172,-13.12891 z m 136.142579,1 c 1.427014,0 2.331179,1.37119 3.632813,5.5 1.675388,5.31535 4.287926,7.96034 3.070312,3.10938 -0.889364,-3.54377 0.867522,-3.88331 2.78711,-0.53907 1.565988,2.72887 1.565898,2.96872 -0.02539,3.78321 -0.934364,0.47825 -2.828393,1.13685 -4.207031,1.46484 -2.319428,0.55181 -2.640233,0.17023 -4.300781,-5.11133 -0.987054,-3.13876 -2.033798,-6.26953 -2.326172,-6.95703 -0.31821,-0.74806 0.231857,-1.25 1.369139,-1.25 z m 61.962891,1.78516 c -0.438171,-0.0359 -0.697266,0.0802 -0.697266,0.35547 0,0.52464 -1.034434,1.94513 -2.298828,3.15625 -1.264318,1.21111 -1.601884,1.67709 -0.75,1.03711 0.851894,-0.64064 2.994391,-1.54064 4.761719,-2 l 3.212891,-0.83399 -2.462891,-1.15625 c -0.710819,-0.33355 -1.327454,-0.52266 -1.765625,-0.55859 z m -258.7168,0.18554 c -0.46811,0.036 -1.08492,0.23778 -1.79882,0.60157 -2.26796,1.15465 -2.24238,1.19424 1.15039,1.83007 1.90635,0.35776 4.01684,1.31261 4.68945,2.12305 0.67261,0.81045 1.50446,1.46076 1.84961,1.44336 0.34516,-0.0174 -0.54717,-1.06862 -1.98242,-2.33398 -1.43592,-1.26536 -2.78592,-2.73703 -3,-3.27149 -0.12001,-0.29958 -0.44009,-0.42859 -0.90821,-0.39258 z m 69.59766,0.11524 c 1.54143,-0.15954 3.15923,0.0949 4.30469,0.82031 1.16594,0.73844 1.1422,1.21938 -0.14649,3.05859 -1.61871,2.31103 -3.16469,1.31404 -2.13281,-1.375 0.82405,-2.14676 -0.91056,-2.01447 -2.9375,0.22461 -2.51172,2.77543 -3.15133,7.53648 -1.22852,9.13282 0.88571,0.73507 1.93673,0.98726 2.33594,0.55859 0.3992,-0.42868 0.16406,-0.98102 -0.52344,-1.22656 -1.9269,-0.68841 -1.47915,-2.2793 0.64258,-2.2793 1.55465,0 3.10742,1.77227 3.10742,3.54688 0,1.1686 -3.80871,2.09975 -5.68554,1.39062 -4.51767,-1.70693 -5.33709,-8.02071 -1.58203,-12.1875 0.83885,-0.93083 2.30427,-1.50453 3.8457,-1.66406 z m 116.109374,0.91406 c 1.479534,0 2.225088,1.27672 3.357422,5.75 1.414764,5.58984 3.778287,7.62854 3.132813,2.70313 -0.17686,-1.34963 0.06247,-2.45313 0.53125,-2.45313 1.084474,0 3.336606,5.85927 2.451172,6.37695 -0.36382,0.2127 -2.083518,0.69176 -3.822266,1.06446 -3.123002,0.66941 -3.18164,0.61019 -4.767578,-4.84571 -0.882994,-3.03696 -1.870903,-6.21319 -2.195313,-7.05859 -0.403124,-1.05069 0.01262,-1.53711 1.3125,-1.53711 z m -104.142574,1.21875 c 0.3418,0.0691 0.73646,0.30777 1.25195,0.63477 0.9115,0.57823 1.20877,2.90716 1,7.83789 -0.26659,6.29548 -0.48495,6.95036 -2.12109,6.37304 -1.0032,-0.35384 -1.75779,-1.06335 -1.67579,-1.57812 0.0819,-0.51478 -0.33453,-1.09784 -0.92578,-1.29492 -0.59125,-0.19709 -1.07422,0.12877 -1.07422,0.72461 0,0.59583 -0.71315,1.08398 -1.58398,1.08398 -0.87084,0 -1.43334,-0.3392 -1.25,-0.75391 0.18333,-0.41405 1.45593,-3.56471 2.82813,-7 1.96781,-4.92739 2.52535,-6.23463 3.55078,-6.02734 z m 95.519528,0.80274 c 1.515215,0.0212 2.935546,0.35373 2.935546,0.97851 0,0.55 -0.536632,0.8875 -1.191406,0.75 -0.654774,-0.1375 -1.362211,0.53618 -1.572265,1.49609 -0.26367,1.20533 0.07428,1.57136 1.089843,1.18165 0.809254,-0.31057 1.769276,-0.0816 2.134766,0.50976 0.36549,0.59138 -0.03858,1.34582 -0.898438,1.67578 -1.699708,0.65229 -2.193978,5.38672 -0.5625,5.38672 0.55,0 1,-0.9 1,-2 0,-2.72852 1.260337,-2.50232 2.640625,0.47461 1.001434,2.15977 0.879478,2.53488 -1,3.07227 -1.177148,0.33659 -2.93134,0.83228 -3.896484,1.10156 -0.965134,0.26928 -1.925356,-0.10466 -2.134766,-0.83008 -1.327559,-4.59827 -2.528649,-12.14132 -2.054689,-12.9082 0.38282,-0.61941 1.994487,-0.90991 3.509768,-0.88867 z m -85.009768,1.47851 c 1.54857,0 1.59481,0.68303 0.51953,7.85352 -0.68975,4.5989 0.65948,6.68223 1.71485,2.64648 0.79944,-3.05708 2.4946,-2.38047 2.32812,0.92969 -0.0811,1.6121 -0.36575,3.09372 -0.63281,3.29101 -0.50235,0.37111 -4.67719,-0.0547 -6.55078,-0.66796 -1.71055,-0.55995 0.80608,-14.05274 2.62109,-14.05274 z m 74.14453,0.5 c 2.32,0 2.80078,0.42857 2.80078,2.5 0,3.07473 -1.77608,3.27701 -2.86718,0.32813 -0.61991,-1.67576 -0.99682,-1.85964 -1.64453,-0.81055 -0.55179,0.89281 -0.22832,1.72237 0.94336,2.41992 3.48073,2.07261 6.56835,4.72035 6.56835,5.63477 0,0.51008 -0.9,1.82773 -2,2.92773 -3.53003,3.53069 -7.47351,2.34646 -7.54101,-2.26367 -0.0474,-3.23714 1.88821,-3.11414 2.36719,0.15039 0.20665,1.40841 0.91388,2.11668 1.91797,1.92187 3.03929,-0.5891 2.36075,-2.7172 -1.67969,-5.26757 -2.23596,-1.4115 -4.06446,-3.14542 -4.06446,-3.85352 0,-2.11428 2.21835,-3.6875 5.19922,-3.6875 z m -9.50781,1 c 0.81121,0 1.31036,0.3375 1.10938,0.75 -0.20099,0.4125 -1.00127,2.01909 -1.77735,3.57031 -1.08661,2.17283 -1.13169,2.99327 -0.20117,3.56836 1.55963,0.9639 5.08852,7.86656 4.38281,8.57227 -1.24486,1.24486 -4.20508,-0.84743 -4.20508,-2.9707 0,-0.60988 -0.7078,-1.98121 -1.57226,-3.04883 -1.49137,-1.84186 -1.54418,-1.77521 -1.02539,1.30859 0.46334,2.75418 0.24595,3.25 -1.42774,3.25 -1.6869,0 -1.97658,-0.69132 -1.98828,-4.75 -0.008,-2.6125 -0.2862,-5.7625 -0.61718,-7 -0.49006,-1.82865 -0.19597,-2.25 1.57226,-2.25 1.1966,0 1.95476,0.35812 1.68359,0.79688 -0.27117,0.43876 -0.10482,1.42721 0.3711,2.19726 0.6546,1.05918 1.03073,0.74339 1.54297,-1.29687 0.37241,-1.48382 1.34113,-2.69727 2.15234,-2.69727 z m -42.67773,1 c 3.23632,0 5.41849,2.23611 4.73437,4.85156 -0.268,1.02481 -0.0775,2.59636 0.42383,3.49219 0.57078,1.01994 0.50868,2.38189 -0.16602,3.64258 -0.80169,1.49798 -2.09096,2.01367 -5.04101,2.01367 -4.43419,0 -4.56363,-0.36221 -3.33008,-9.36133 0.5807,-4.23596 0.87539,-4.63867 3.37891,-4.63867 z m 13.98632,0 c 4.32869,0 6.56936,8.31501 3.44336,12.77734 -1.92806,2.75363 -6.00391,2.91105 -7.4082,0.28711 -2.57666,-4.81389 -0.0728,-13.06445 3.96484,-13.06445 z m 13.31055,0.15625 c 1.01699,0.0819 2.06831,0.60496 3.0332,1.67188 2.13463,2.35803 2.18579,9.49716 0.084,11.59961 -3.46522,3.46456 -7.11098,1.296 -8.10352,-4.82032 -0.80615,-4.96709 1.93536,-8.69689 4.98633,-8.45117 z m -13.38672,1.84375 c -0.4739,0 -0.60173,0.675 -0.28515,1.5 0.31659,0.825 0.0776,1.5 -0.53125,1.5 -1.18317,0 -1.55756,6.21588 -0.44141,7.33203 1.75791,1.75792 3.33398,-0.52513 3.33398,-4.83203 0,-2.95822 -0.95979,-5.5 -2.07617,-5.5 z m 12.23438,0.0977 c -0.13751,0.0588 -0.11988,0.20523 0.082,0.42383 0.40773,0.43719 0.24429,1.39292 -0.36328,2.125 -0.6607,0.79543 -0.83474,2.76796 -0.4336,4.90625 0.97549,5.19912 3.05664,3.80245 3.05664,-2.05274 0,-3.42063 -0.43842,-4.9719 -1.5,-5.30469 -0.41249,-0.12931 -0.70428,-0.15975 -0.84179,-0.0976 z m -24.98242,5.90234 c -0.96982,0 -2.17579,2.30883 -2.17579,4.16406 0,0.55089 0.56316,0.81626 1.25,0.58985 1.48583,-0.48933 2.31562,-4.75391 0.92579,-4.75391 z" />
    </g>
  </g>
</svg>
